<?xml version="1.0" encoding="UTF-8"?>
<svg width="752pt" height="752pt" version="1.1" viewBox="0 0 752 752" xmlns="http://www.w3.org/2000/svg">
 <defs>
  <clipPath id="a">
   <path d="m160 144h432v468.79h-432z"/>
  </clipPath>
 </defs>
 <g clip-path="url(#a)">
  <path d="m306.36 278.5c-34.617 0-62.68-28.062-62.68-62.68 0-34.617 28.062-62.68 62.68-62.68 34.617 0 62.68 28.062 62.68 62.68 0 34.617-28.062 62.68-62.68 62.68zm0-27.859c19.234 0 34.824-15.59 34.824-34.82 0-19.234-15.59-34.824-34.824-34.824-19.23 0-34.82 15.59-34.82 34.824 0 19.23 15.59 34.82 34.82 34.82zm243.76 55.715c-23.078 0-41.789-18.707-41.789-41.785 0-23.078 18.711-41.785 41.789-41.785s41.785 18.707 41.785 41.785c0 23.078-18.707 41.785-41.785 41.785zm0-27.855c7.6914 0 13.926-6.2383 13.926-13.93 0-7.6914-6.2344-13.93-13.926-13.93-7.6953 0-13.93 6.2383-13.93 13.93 0 7.6914 6.2344 13.93 13.93 13.93zm-216.16 129.48 27.285 95.488 41.336 89.562c3.2227 6.9844 0.17188 15.258-6.8125 18.484-6.9844 3.2227-15.258 0.17188-18.48-6.8125l-41.789-90.535c-0.30078-0.65234-0.54688-1.3242-0.74609-2.0117l-19.922-69.727-50.258 70.363v86.074c0 7.6914-6.2344 13.93-13.93 13.93-7.6914 0-13.926-6.2383-13.926-13.93v-90.539c0-2.9023 0.90625-5.7305 2.5938-8.0938l66.441-93.023-11.469-86.023-84.434 6.0312c-5.9727 0.42578-11.547-3.0117-13.852-8.5352l-34.703-83.293c-0.46094-1.0469-0.80078-2.168-1-3.3477-1.2656-7.5898 3.8633-14.766 11.449-16.031l41.789-6.9648c7.5859-1.2617 14.762 3.8633 16.027 11.453 1.2656 7.5859-3.8594 14.762-11.449 16.027l-24.465 4.0781 24.215 58.113 87.504-6.25c7.3438-0.52734 13.828 4.7539 14.801 12.051zm64.008-178.27c-7.6719 0.58984-14.367-5.1484-14.957-12.82-0.58984-7.668 5.1484-14.363 12.82-14.953l62.543-4.8125c7.0703-0.54297 12.363-6.7188 11.82-13.789-0.015625-0.20312-0.039062-0.40625-0.0625-0.60547-0.84766-6.7773-7.0234-11.582-13.801-10.734-0.26562 0.035156-0.53516 0.078124-0.80078 0.12891l-62.965 12.109c-7.5547 1.4531-14.859-3.4961-16.309-11.051-1.4531-7.5508 3.4922-14.855 11.047-16.309l62.969-12.109c0.86328-0.16406 1.7305-0.30078 2.6055-0.41016 22.039-2.7578 42.141 12.879 44.895 34.918 0.082031 0.64062 0.14844 1.2852 0.19531 1.9258 1.7266 22.41-15.047 41.977-37.457 43.699z" fill="#fff"/>
 </g>
</svg>
