<?xml version="1.0" encoding="UTF-8"?>
<svg width="752pt" height="752pt" version="1.1" viewBox="0 0 752 752" xmlns="http://www.w3.org/2000/svg">
 <g fill="#fff">
  <path d="m488.85 361.46c0-42.648-23.785-79.84-58.785-99.027 9.1484-20.668 8.9688-40.152-1.625-46.816-7.7461-4.8828-19.285-1.7461-30.66 7-5.0078-12.809-12.883-21.113-21.781-21.113-8.8906 0-16.777 8.3008-21.777 21.113-11.383-8.7422-22.914-11.879-30.66-6.9961-10.594 6.6641-10.77 26.148-1.625 46.816-35 19.18-58.785 56.375-58.785 99.023l-0.003906 153.36c0 19.676 15.973 35.684 35.613 35.684 10.113 0 19.254-4.25 25.738-11.059 6.4922 6.8086 15.641 11.059 25.754 11.059 10.117 0 19.258-4.2461 25.75-11.059 6.4844 6.8086 15.625 11.059 25.742 11.059 10.117 0 19.258-4.25 25.75-11.059 6.4922 6.8086 15.633 11.059 25.742 11.059 19.641 0 35.617-16.008 35.617-35.684zm-35.609 169.32c-8.7578 0-15.883-7.1602-15.883-15.961 0-5.4453-4.4102-9.8594-9.8594-9.8594-5.4414 0-9.8594 4.4141-9.8594 9.8594 0 8.8008-7.125 15.961-15.891 15.961-8.7578 0-15.883-7.1602-15.883-15.961 0-5.4453-4.418-9.8594-9.8594-9.8594-5.4492 0-9.8594 4.4141-9.8594 9.8594 0 8.8008-7.1328 15.961-15.891 15.961-8.7617 0-15.895-7.1602-15.895-15.961 0-5.4453-4.4102-9.8594-9.8594-9.8594-5.4414 0-9.8594 4.4141-9.8594 9.8594 0 8.8008-7.1211 15.961-15.879 15.961-8.7617 0-15.891-7.1602-15.891-15.961l0.003906-153.36c0-35.285 19.73-66.055 48.734-81.848 13.32 19.484 32.027 35.848 44.391 35.109 12.371 0.73828 31.07-15.625 44.398-35.105 29.004 15.797 48.73 46.562 48.73 81.848l0.007813 153.36c-0.007813 8.7969-7.1367 15.957-15.898 15.957z"/>
  <path d="m334.5 355.97c0 9.7578-7.9102 17.668-17.668 17.668-9.7578 0-17.668-7.9102-17.668-17.668s7.9102-17.668 17.668-17.668c9.7578 0 17.668 7.9102 17.668 17.668"/>
  <path d="m452.83 355.97c0 9.7578-7.9102 17.668-17.668 17.668-9.7578 0-17.668-7.9102-17.668-17.668s7.9102-17.668 17.668-17.668c9.7578 0 17.668 7.9102 17.668 17.668"/>
  <path d="m376 351.85c-27.328 0-37.246 23.59-37.246 39.441v2.6914l37.246 63.09 37.254-63.09v-2.6914c0-15.852-9.9258-39.441-37.254-39.441zm0 66.438-17.383-29.445c0.57812-5.4102 3.4414-17.273 17.383-17.273 13.797 0 16.785 11.227 17.391 17.266z"/>
 </g>
</svg>
