<?xml version="1.0" encoding="UTF-8"?>
<svg width="752pt" height="752pt" version="1.1" viewBox="0 0 752 752" xmlns="http://www.w3.org/2000/svg">
 <g fill="#fff">
  <path d="m297.07 346.4c-18.316 0-35.883 7.2773-48.836 20.23-12.949 12.949-20.227 30.516-20.227 48.832 0 18.32 7.2773 35.887 20.227 48.836 12.953 12.953 30.52 20.23 48.836 20.23 18.316 0 35.883-7.2773 48.836-20.23 12.953-12.949 20.23-30.516 20.23-48.836-0.023438-18.309-7.3086-35.863-20.254-48.809-12.949-12.949-30.5-20.23-48.812-20.254zm0 118.39c-13.082 0-25.629-5.1953-34.883-14.449-9.25-9.25-14.449-21.797-14.449-34.883 0-13.082 5.1992-25.629 14.449-34.883 9.2539-9.25 21.801-14.445 34.883-14.445 13.086 0 25.633 5.1953 34.883 14.445 9.2539 9.2539 14.449 21.801 14.449 34.883-0.015625 13.082-5.2188 25.621-14.465 34.867-9.25 9.25-21.789 14.449-34.867 14.465z"/>
  <path d="m454.93 218.14c-27.922 0-55.469 21.156-78.723 59.914-20.555-34.078-47.883-59.914-79.137-59.914-68.398 0-118.39 123.29-118.39 187.46 0 62.176 41.496 128.26 118.39 128.26 29.383 0.53906 57.773-10.629 78.914-31.039 21.168 20.395 49.559 31.555 78.945 31.039 76.898 0 118.39-66.086 118.39-128.26 0.003906-64.172-49.992-187.46-118.39-187.46zm-157.86 295.99c-64.777 0-98.66-54.602-98.66-108.53 0-55.227 45.672-167.73 98.664-167.73 52.988 0 98.66 112.5 98.66 167.73 0 52.617-34.582 108.53-98.664 108.53zm157.86 0c-24.586 0.31641-48.27-9.2695-65.715-26.598 17.113-23.887 26.297-52.547 26.25-81.93 0-29.18-10.418-70.523-28.125-107 20.609-38.559 45.047-60.727 67.59-60.727 52.992 0 98.664 112.5 98.664 167.73 0 52.617-34.582 108.53-98.664 108.53z"/>
  <path d="m470.87 279.43c-4.2969-3.2266-10.391-2.418-13.699 1.8203-3.3047 4.2383-2.6133 10.344 1.5586 13.73 19.688 15.379 35.672 54.051 35.672 71.156 0 5.4492 4.4141 9.8633 9.8633 9.8633s9.8672-4.4141 9.8672-9.8633c0-21.074-17.254-66.406-43.262-86.707z"/>
 </g>
</svg>
