<?xml version="1.0" encoding="UTF-8"?>
<svg width="752pt" height="752pt" version="1.1" viewBox="0 0 752 752" xmlns="http://www.w3.org/2000/svg">
 <path d="m389.04 302h-146.23c-8.168 0-14.801 6.6289-14.801 14.801v59.199c0 54.727 29.777 102.57 73.996 128.16v64.23c0 8.168 6.6289 14.801 14.801 14.801h118.39c8.168 0 14.801-6.6289 14.801-14.801v-64.23c44.219-25.59 73.996-73.434 73.996-128.16v-59.199c0-8.168-6.6289-14.801-14.801-14.801h-85.969l52.672-91.238c4.0859-7.0742 13.141-9.5 20.215-5.418 7.0742 4.0859 9.5 13.141 5.418 20.215-4.0859 7.0742-1.6562 16.133 5.418 20.215 7.0742 4.0859 16.133 1.6562 20.215-5.418 12.254-21.223 4.9727-48.395-16.25-60.648-21.223-12.254-48.395-4.9727-60.648 16.25l-61.227 106.04zm31.359 215.2c-14.031 4.4102-28.934 6.793-44.398 6.793s-30.367-2.3828-44.398-6.793v36.391h88.797zm73.078-126.4c-7.2969 58.367-57.141 103.6-117.48 103.6s-110.18-45.227-117.48-103.6h234.96zm-95.812-59.199h-140.06v29.598h236.79v-29.598h-96.73zm-140.06-133.2v44.398c0 8.168 6.6289 14.801 14.801 14.801 8.168 0 14.801-6.6289 14.801-14.801v-44.398c0-8.168-6.6289-14.801-14.801-14.801-8.168 0-14.801 6.6289-14.801 14.801zm59.199 0v44.398c0 8.168 6.6289 14.801 14.801 14.801 8.168 0 14.801-6.6289 14.801-14.801v-44.398c0-8.168-6.6289-14.801-14.801-14.801-8.168 0-14.801 6.6289-14.801 14.801zm59.199 0v29.598c0 8.168 6.6289 14.801 14.801 14.801 8.168 0 14.801-6.6289 14.801-14.801v-29.598c0-8.168-6.6289-14.801-14.801-14.801-8.168 0-14.801 6.6289-14.801 14.801z" fill="#fff" fill-rule="evenodd"/>
</svg>
