<?xml version="1.0" encoding="UTF-8"?>
<svg width="752pt" height="752pt" version="1.1" viewBox="0 0 752 752" xmlns="http://www.w3.org/2000/svg">
 <g fill="#fff">
  <path d="m544.33 263.25-22.617-22.859c-17.77-17.965-46.75-18.121-64.711-0.34375-0.6875 0.67578-1.293 1.3984-1.9258 2.1055-20.699-9.4688-46.613-15.137-79.082-15.137-30.359 0-56.531 5.332-78.484 15.797-0.80859-0.94141-1.6289-1.875-2.5273-2.7656-17.965-17.773-46.934-17.621-64.707 0.34375l-22.625 22.859c-17.773 17.961-17.617 46.934 0.34375 64.711 4.6719 4.6172 10.086 8 15.852 10.199-7.707 29.102-8.9258 58.375-8.9258 80.598 0 64.105 61.812 76.602 111.48 86.637l0.23047-1.1484c11.188 12.684 29.102 20.945 49.355 20.945 20.254 0 38.172-8.2617 49.359-20.945l0.23047 1.1484c49.66-10.043 111.48-22.535 111.48-86.637 0-19.117-0.011719-49.781-7.8125-81.031 5.3477-2.2031 10.375-5.4414 14.738-9.7656 17.984-17.777 18.137-46.754 0.35156-64.711zm-180.7 229.71h-19.723v-33.156h19.723zm44.453 0h-19.723l0.003906-33.156h19.723zm28.289-9.9648c0.66016-3.0312 1.0586-6.1367 1.0586-9.3242 0-28.461-27.508-51.539-61.43-51.539-33.926 0-61.426 23.078-61.426 51.539 0 3.1875 0.39062 6.293 1.0508 9.3242-49.426-10.789-80.973-23.512-80.973-64.234 0-29.961 2.9453-55.812 8.9102-77.73 10.641-0.78125 21.055-5.2305 29.148-13.406l22.617-22.855c12.074-12.203 15.855-29.488 11.418-44.891 19.113-8.8164 42.148-13.133 69.25-13.133 28.344 0 51.047 4.7383 69.293 12.949-4.5195 15.449-0.75391 32.82 11.371 45.074l22.625 22.855c8.2812 8.3672 18.996 12.82 29.891 13.445 6.4727 24.812 8.1719 51.859 8.1719 77.691-0.003906 40.719-31.555 53.445-80.977 64.234z"/>
  <path d="m300.62 355.77h19.723v26.68h-19.723z"/>
  <path d="m431.66 355.77h19.723v26.68h-19.723z"/>
 </g>
</svg>
