<?xml version="1.0" encoding="UTF-8"?>
<svg version="1.1" viewBox="0 0 752 752" xmlns="http://www.w3.org/2000/svg">
 <g fill="#fff">
  <path d="m581.87 194.71c1.1406-1.6367 1.5703-3.6641 1.1914-5.6211l-5.5703-29.066c-0.75-3.9492-4.5156-6.5781-8.4805-5.9219l-217.03 36.172-6.082-1.043c-5.6836-10.629-14.145-19.52-24.48-25.719-10.336-6.2031-22.16-9.4844-34.215-9.4961h-29.598c-17.656 0.019531-34.582 7.0391-47.07 19.527-12.484 12.484-19.508 29.41-19.527 47.07v177.59h-7.3984c-3.9258 0-7.6914 1.5586-10.465 4.3359-2.7773 2.7773-4.3359 6.5391-4.3359 10.465v14.801c0.007812 2.8281 0.82812 5.5977 2.3594 7.9766 1.5352 2.3789 3.7188 4.2695 6.293 5.4453 3.5703 28.484 15.055 55.402 33.145 77.695 18.086 22.293 42.059 39.074 69.199 48.441v23.234c0 1.9609 0.78125 3.8438 2.168 5.2305 1.3867 1.3867 3.2695 2.168 5.2305 2.168h103.6c1.9609 0 3.8438-0.78125 5.2305-2.168 1.3906-1.3867 2.168-3.2695 2.168-5.2305v-23.234c27.141-9.3672 51.113-26.148 69.203-48.441s29.57-49.211 33.145-77.695c2.5742-1.1758 4.7578-3.0664 6.2891-5.4453 1.5352-2.3789 2.3516-5.1484 2.3594-7.9766v-14.801c0-3.9258-1.5586-7.6875-4.332-10.465-2.7773-2.7773-6.543-4.3359-10.465-4.3359h-1.082c1.9023-4.3945 2.4375-9.2578 1.5391-13.961l0.73828-1.4805c2.2852-4.5547 3.0703-9.7148 2.2539-14.742-0.81641-5.0312-3.1953-9.6758-6.8047-13.273l-4.0469-4.0039v-19.137c-0.023438-2.1836-1.0234-4.2461-2.7305-5.6133l9.8711-36.523v-0.003906c0.78516-2.8906-0.25-5.9727-2.625-7.8008s-5.6172-2.043-8.2148-0.54688l-11.73 6.7344-6.7227-11.742c-1.4922-2.5977-4.3984-4.043-7.3711-3.6562-2.9688 0.38281-5.4141 2.5195-6.1953 5.4102l-10.602 39.27c-2.0352 0.52344-3.7461 1.8984-4.6992 3.7656l-6.0234 12.062-7.7617 2.582c-4.8359 1.6094-9.0391 4.6953-12.02 8.8281-2.9766 4.1328-4.5781 9.0977-4.5703 14.191v4.707l-5.6094 1.8711c-4.8359 1.6094-9.0391 4.6992-12.016 8.832-2.9805 4.1289-4.582 9.0977-4.5742 14.191v10.039h-29.602v-162.63l214.96 36.727v-0.003906c0.41406 0.074219 0.83203 0.11328 1.2539 0.11328 3.5312-0.003906 6.5703-2.5039 7.25-5.9727l5.7188-29.035c0.38672-1.957-0.035156-3.9883-1.168-5.6328-1.1328-1.6406-2.8789-2.7578-4.8477-3.0938l-91.578-15.648 91.617-15.242c1.9688-0.32812 3.7188-1.4336 4.8594-3.0742zm-257.66-10.277c9.4883 9.6523 14.805 22.645 14.801 36.18v177.59h-14.801zm-29.598-15.027c5.1289 0.72266 10.117 2.2227 14.797 4.4375v224.36h-14.797zm-29.598-0.59375h14.801l-0.003906 229.39h-14.797zm-29.598 5.0703h-0.003906c4.6836-2.2188 9.6719-3.7148 14.801-4.4414v228.76h-14.801zm-29.602 46.73c-0.003906-13.535 5.3125-26.527 14.801-36.18v213.77h-14.801zm177.59 362.58h-88.797v-11.551c11.285 2.7109 22.848 4.1016 34.453 4.1523h19.891c11.605-0.050781 23.168-1.4414 34.453-4.1523zm-34.453-22.199h-19.891c-33.145-0.17578-65.129-12.211-90.168-33.93-25.039-21.715-41.473-51.68-46.336-84.465h292.89c-4.8594 32.785-21.297 62.75-46.336 84.465-25.035 21.719-57.023 33.754-90.164 33.93zm111.96-262.01 1.5234 2.6484c2.0352 3.543 6.5586 4.7656 10.102 2.7305l2.6641-1.5234-5.7734 21.363h-10.277l-4.4414-2.2188zm-62.707 89.176c0.003906-4.0781 2.6094-7.6953 6.4766-8.9844l10.664-3.5586c3.0195-1.0078 5.0586-3.832 5.0586-7.0156v-10.043c0-4.0742 2.6094-7.6914 6.4766-8.9805l10.664-3.5586c1.8594-0.61719 3.4023-1.9492 4.2812-3.7031l4.0859-8.1758 8.1836 4.0938c1.0273 0.50781 2.1602 0.77344 3.3086 0.76953h14.801v14.801-0.003907c0 1.9648 0.77734 3.8477 2.168 5.2344l6.1992 6.1992c2.8867 2.8789 3.6016 7.2852 1.7773 10.93l-1.9688 3.9297c-0.875 1.7539-1.0195 3.7852-0.39844 5.6445 0.96094 2.8867 0.48047 6.0625-1.3008 8.5312-1.7773 2.4688-4.6328 3.9297-7.6758 3.9297h-72.801zm-7.3984 24.84h103.6v14.801h-310.79v-14.801zm176.2-171.02-2.8633 14.512-210.34-35.934c-0.019531-5.1641-0.64453-10.305-1.8633-15.324zm-126.09-36.562-44.457-7.5898 167.86-27.941 2.7891 14.531z"/>
  <path d="m435.2 368.6h14.801v14.801h-14.801z"/>
  <path d="m450 346.4h14.801v14.801h-14.801z"/>
  <path d="m235.41 509.2h22.199c1.9648 0 3.8438-0.77734 5.2344-2.168 1.3867-1.3867 2.168-3.2695 2.168-5.2305v-22.199h-14.801v14.801h-7.3984v-22.199h29.598v29.598c0 1.9609 0.77734 3.8438 2.168 5.2305 1.3867 1.3906 3.2695 2.168 5.2305 2.168h44.398c1.9648 0 3.8438-0.77734 5.2344-2.168 1.3867-1.3867 2.1641-3.2695 2.1641-5.2305v-37c0-1.9609-0.77734-3.8438-2.1641-5.2305-1.3906-1.3867-3.2695-2.168-5.2344-2.168h-22.199c-4.0859 0-7.3984 3.3125-7.3984 7.3984v22.199h14.801l-0.003906-14.797h7.3984v22.199h-29.598v-29.602c0-1.9609-0.77734-3.8438-2.1641-5.2305-1.3906-1.3867-3.2695-2.168-5.2344-2.168h-44.398c-4.0859 0-7.3984 3.3125-7.3984 7.3984v37c0 1.9609 0.77734 3.8438 2.168 5.2305 1.3867 1.3906 3.2695 2.168 5.2305 2.168z"/>
  <path d="m353.8 509.2h22.199c1.9648 0 3.8477-0.77734 5.2344-2.168 1.3867-1.3867 2.168-3.2695 2.168-5.2305v-22.199h-14.801v14.801h-7.3984v-22.199h29.598v29.598c0 1.9609 0.78125 3.8438 2.168 5.2305 1.3867 1.3906 3.2695 2.168 5.2305 2.168h44.398c1.9648 0 3.8477-0.77734 5.2344-2.168 1.3867-1.3867 2.168-3.2695 2.168-5.2305v-37c0-1.9609-0.78125-3.8438-2.168-5.2305-1.3867-1.3867-3.2695-2.168-5.2344-2.168h-22.199c-4.0859 0-7.3984 3.3125-7.3984 7.3984v22.199h14.801v-14.797h7.3984v22.199h-29.598v-29.602c0-1.9609-0.78125-3.8438-2.168-5.2305-1.3867-1.3867-3.2695-2.168-5.2344-2.168h-44.398c-4.0859 0-7.3984 3.3125-7.3984 7.3984v37c0 1.9609 0.78125 3.8438 2.168 5.2305 1.3867 1.3906 3.2695 2.168 5.2305 2.168z"/>
  <path d="m287.2 524h14.801v14.801h-14.801z"/>
  <path d="m316.8 524h14.801v14.801h-14.801z"/>
  <path d="m346.4 524h14.801v14.801h-14.801z"/>
  <path d="m376 524h14.801v14.801h-14.801z"/>
 </g>
</svg>
