<?xml version="1.0" encoding="UTF-8"?>
<svg width="752pt" height="752pt" version="1.1" viewBox="0 0 752 752" xmlns="http://www.w3.org/2000/svg">
 <path d="m339.16 214.23c6.5859 9.4219 10.332 20.531 10.797 32.012-0.21094 12.898-4.8008 25.344-13.023 35.285-1.2305 1.375-2.4141 2.5586-3.5039 3.6953v-0.003906c-6.9922 6.8086-12.562 14.938-16.387 23.918-4.1406 8.4219-6.3711 17.656-6.5352 27.039 0.67969 15.234 6.0742 29.883 15.441 41.914l0.28516 0.42578 0.37891 0.33203s23.348 21.645 23.348 47.359l-0.003906-0.003906c-0.71094 12.746-5.2852 24.969-13.117 35.047-8.1289 7.9844-14.824 17.309-19.797 27.562-4.1484 8.418-6.3828 17.656-6.5352 27.043 0.40625 12.676 4.2891 24.996 11.227 35.613h-13.973l-0.28516-0.23828c-7.8672-10.168-12.441-22.492-13.117-35.328 0.14062-7.8516 2.0312-15.57 5.543-22.59 4.4766-9.1836 10.5-17.531 17.805-24.676l0.37891-0.37891 0.33203-0.42578c9.3242-12.035 14.699-26.656 15.391-41.863 0-28.414-22.828-51.242-26.332-54.555v-0.003906c-7.8672-10.184-12.445-22.523-13.117-35.375 0.14062-7.8477 2.0312-15.566 5.543-22.59 3.1172-7.5352 7.7227-14.363 13.543-20.078l4.7344-4.7344c9.0938-10.086 22.59-31.211 22.59-48.117 0.015625-8.7695-0.48828-17.531-1.5156-26.238m22.117 5.4453c6.8203 7.9141 11.426 17.488 13.355 27.754v0.28516-0.003906c2.4141 11.855 0.46484 24.184-5.4922 34.715-2.082 2.918-4.3594 5.6875-6.8203 8.2891-5.2656 5.3633-9.4922 11.656-12.457 18.562-4.1367 8.4219-6.3516 17.66-6.4883 27.043 0.66016 15.227 6.0391 29.875 15.395 41.91l0.28516 0.42578 0.37891 0.33203s23.348 21.738 23.348 47.359h-0.003906c-0.75 12.676-5.3242 24.828-13.117 34.855-8.1289 7.9844-14.824 17.309-19.797 27.562-4.1367 8.4219-6.3516 17.66-6.4883 27.043 0.39062 12.672 4.2578 24.992 11.18 35.613h-14.207l-0.050781-0.23828c-7.832-10.184-12.391-22.5-13.07-35.328 0.14453-7.8438 2.0195-15.559 5.4961-22.59 4.4961-9.1719 10.516-17.516 17.805-24.676l0.42578-0.37891 0.28516-0.42578c9.2461-12.008 14.555-26.582 15.203-41.723 0-28.414-22.777-51.242-26.332-54.555-7.832-10.199-12.391-22.535-13.07-35.379 0.14844-7.8398 2.0234-15.555 5.4922-22.59 2.9258-6.7383 7.0859-12.875 12.266-18.09 1.8477-1.9883 3.9766-4.2617 6.3477-7.3398 7.9102-10.23 14.207-31.258 14.207-47.832-0.066406-7.0586-1.4492-14.047-4.0742-20.602m59.434 183.75c6.5898 9.4336 10.34 20.562 10.801 32.062-0.22266 12.859-4.7969 25.262-12.977 35.188-1.2305 1.375-2.4141 2.5586-3.5039 3.6953v-0.003906c-6.9688 6.7383-12.539 14.785-16.387 23.68-8.5781 16.691-8.7188 36.465-0.37891 53.277h-14.965c-4.5586-7.9102-7.0977-16.824-7.3906-25.949 0.16406-7.8477 2.0547-15.562 5.543-22.59 3.0781-7.5234 7.6328-14.355 13.402-20.082 1.4219-1.4688 2.8906-3.0312 4.7344-4.7344 9.0938-10.086 22.637-31.211 22.637-48.117 0.015625-8.7656-0.48828-17.527-1.5156-26.234m22.164 5.1602c6.8477 7.8828 11.52 17.414 13.547 27.656v0.33203c2.4414 11.836 0.50781 24.152-5.4492 34.668-2.1055 2.9336-4.418 5.7188-6.9141 8.332-5.2656 5.3633-9.4883 11.66-12.453 18.566-4.1289 8.4258-6.3438 17.66-6.4883 27.043 0.10938 9.082 2.1953 18.035 6.1094 26.234h-15.012c-4.5234-8.0195-6.9805-17.035-7.1523-26.234 0.16016-7.8477 2.0547-15.562 5.5391-22.59 2.8203-6.6406 6.832-12.711 11.84-17.902 1.8477-1.9883 3.9766-4.2617 6.3477-7.3398 8.0508-10.418 14.207-30.973 14.207-47.832-0.003907-7.2148-1.3711-14.367-4.0273-21.074m-106.08-213.54s23.156 17.098 23.156 45.32c0 15.535-5.7305 35.234-13.023 44.609s-11.602 10.609-18.941 26.285v0.003906c-3.8008 7.7266-5.8555 16.199-6.0117 24.812 0.60938 14.102 5.5742 27.668 14.207 38.836 0 0 25.051 22.875 25.051 51.098-0.60156 14.09-5.5664 27.641-14.207 38.785-7.793 7.6172-14.199 16.523-18.941 26.332-3.8047 7.7305-5.8594 16.203-6.0156 24.816 0.61328 14.086 5.5742 27.637 14.207 38.785 0 0 0.80469 0.75781 2.0352 2.0352l26.617 0.003906-2.0352-2.0352v-0.003906c-8.6328-11.148-13.598-24.699-14.211-38.785 0.16016-8.6133 2.2109-17.086 6.0156-24.816 4.7227-9.8164 11.137-18.73 18.945-26.332 8.6367-11.145 13.602-24.695 14.207-38.785 0-28.414-25.004-51.098-25.004-51.098h-0.003906c-8.6289-11.168-13.594-24.734-14.207-38.836 0.16016-8.6133 2.2109-17.086 6.0156-24.812 7.3867-15.676 11.129-15.105 18.941-26.285h0.003906c6.7422-11.754 8.9336-25.574 6.1562-38.836-7.1523-37.887-42.906-51.098-42.906-51.098zm-6.6758 0c3.7266 14.812 5.4609 30.051 5.1602 45.32 0 15.535-13.07 35.52-21.266 44.609-8.1914 9.0938-11.602 10.609-18.941 26.285l0.003906 0.003906c-3.8047 7.7266-5.8594 16.199-6.0156 24.812 0.60937 14.102 5.5742 27.668 14.207 38.836 0 0 25.195 22.871 25.195 51.098-0.60547 14.09-5.5703 27.641-14.207 38.785-7.793 7.6172-14.203 16.523-18.945 26.332-3.8047 7.7305-5.8555 16.203-6.0156 24.816 0.61328 14.086 5.5781 27.637 14.211 38.785l2.0352 2.0352h26.617l-2.0352-2.0352h-0.003907c-8.6328-11.148-13.594-24.699-14.207-38.785 0.13281-8.6172 2.1875-17.094 6.0156-24.816 4.7305-9.8125 11.141-18.727 18.941-26.332 8.6406-11.145 13.605-24.695 14.207-38.785 0-28.414-25.004-51.098-25.004-51.098-8.6328-11.168-13.598-24.734-14.207-38.836 0.13281-8.6133 2.1875-17.094 6.0117-24.812 4.4062-9.9922 10.859-18.945 18.945-26.285 9.0312-10.941 14.043-24.648 14.207-38.836 0-28.414-24.863-51.098-24.863-51.098zm88.324 189.24s23.156 17.098 23.156 45.32c0 15.535-5.7305 35.234-13.023 44.609-7.293 9.375-11.602 10.609-18.941 26.285v0.003906c-3.8047 7.7305-5.8594 16.203-6.0156 24.816 0.3125 11.137 3.582 21.988 9.4727 31.445h26.617-0.003906c-5.9102-9.4492-9.1836-20.309-9.4727-31.445 0.16016-8.6133 2.2109-17.086 6.0156-24.816 7.3867-15.676 11.129-15.105 18.941-26.285h0.003906c6.7344-11.738 8.9102-25.547 6.1094-38.785-7.1055-37.887-42.621-51.148-42.621-51.148zm-6.6289 0h-0.003906c3.6953 14.816 5.4141 30.055 5.1172 45.324 0 15.535-13.07 35.52-21.266 44.609-8.1914 9.0938-11.648 10.609-18.941 26.285-3.8047 7.7305-5.8594 16.203-6.0156 24.816 0.3125 11.137 3.582 21.988 9.4727 31.445h26.566c-5.8906-9.457-9.1602-20.309-9.4727-31.445 0.13672-8.6172 2.1914-17.098 6.0156-24.816 4.4062-9.9922 10.859-18.945 18.945-26.285 9.0234-10.93 14.035-24.613 14.207-38.785 0-28.414-24.816-51.148-24.816-51.148z" fill="#fff"/>
</svg>
