<?xml version="1.0" encoding="UTF-8"?>
<svg width="752pt" height="752pt" version="1.1" viewBox="0 0 752 752" xmlns="http://www.w3.org/2000/svg">
 <g fill="#fff">
  <path d="m510.05 514.07c-7.4297 5.0156-18.426 1.7031-21.887-6.4961-1.5977-3.7891-5.9648-5.4922-9.6953-3.9531-3.7734 1.5977-5.5352 5.9336-3.9531 9.6953 4.6484 10.98 15.348 18.086 27.273 18.086 5.8906 0 11.617-1.7461 16.516-5.0469 3.3906-2.2773 4.293-6.8828 2.0117-10.27-2.2891-3.4219-6.9062-4.2656-10.266-2.0156z"/>
  <path d="m582.96 531.39c-1.0195-3.9531-5.0469-6.3477-9.0117-5.3125-0.14844 0.015625-13.941 3.3438-21.875-7.043 1.2422-4.4258 2.1172-9.0117 2.1172-13.824 0-20.129-11.203-37.93-28.828-46.293-116.04-64.406-205.98-283.29-206.88-285.5-1.2891-3.168-4.4688-5.0898-7.9609-4.5273-1.1992 0.17578-29.688 4.75-45.969 28.254-1.7617 2.5469-1.7461 5.9062 0 8.4375l21.875 31.492-46.516-50.172c-2.3398-2.5469-6.1406-3.1094-9.1172-1.3906-1.2422 0.72266-30.25 17.727-35.934 46.129-0.45703 2.3242 0.22266 4.7344 1.8359 6.4805l85.527 91.816-84.371-54.578c-1.7773-1.1406-3.9688-1.4805-5.9648-0.91797-2.043 0.5625-3.7305 1.9531-4.6758 3.832-0.59375 1.168-14.387 28.992-18.219 46.543-0.90234 4.1133 2.1172 8.4492 6.3359 8.9375 1.0664 0.22266 4.0977 0.93359 6.1133 1.3906 75.02 18.129 150.91 61.801 213.7 123 20.098 19.578 36.629 40.727 54.094 63.105 4.2617 5.4453 8.5234 10.906 12.875 16.383 9.7812 12.297 24.465 19.371 40.285 19.371 0.3125 0 0.59375-0.089843 0.90234-0.089843-1.4336 6.1719-3.6406 10.906-6.3945 13.336-3.0625 2.707-3.3594 7.3867-0.65234 10.449 2.6797 3.0352 7.4141 3.3008 10.449 0.65234 7.5938-6.7031 10.746-17.863 12.121-27.262 4.4414-1.4961 8.7188-3.375 12.535-5.9648 13.969 23.281 30.844 27.32 31.625 27.484 3.8906 0.88672 7.8008-1.8047 8.6719-5.625 0.90234-3.9375-1.5977-7.875-5.5195-8.8359-0.54687-0.13281-12.98-3.5977-23.723-23.457 1.082-1.332 2.2344-2.5898 3.1836-4.0273 8.5703 7.1055 21.324 9.5156 32.055 6.7344 3.9609-1.0156 6.3281-5.0391 5.3086-9.0078zm-372.7-300.4c4.2773-13.926 16.297-24.387 23.09-29.391l113.57 122.58 60.07 86.488-73.863-47.789zm-24.875 89.891c3.0938-9.7227 8.1094-21.191 11.5-28.52l233.55 151.1c2.9453 1.9102 6.8984 1.4805 9.3398-1.0664 2.457-2.5469 2.7812-6.4688 0.76953-9.3672l-160.74-231.41c8.7305-9.9609 20.57-14.695 27.422-16.738 13.453 31.656 78.363 177.02 167.77 255.78-14.461 10.02-28.578 25.648-37.797 41.793-9.9141-11.973-20.32-23.781-31.73-34.91-64.301-62.648-142.13-107.54-220.08-126.66zm288.32 207.54c-4.3203-5.4297-8.5703-10.863-12.801-16.293-4.4531-5.7109-8.9688-11.453-13.555-17.211 8.4219-17.184 24.285-34.957 39.5-44.293 10.301 8.168 20.898 15.438 31.758 21.461 12.816 6.082 20.777 18.781 20.777 33.121 0 20.41-16.59 37-37 37-11.277-0.007812-21.738-5.0234-28.68-13.785z"/>
 </g>
</svg>
