<?xml version="1.0" encoding="UTF-8"?>
<svg width="752pt" height="752pt" version="1.1" viewBox="0 0 752 752" xmlns="http://www.w3.org/2000/svg">
 <path d="m602.73 313.59c-7.25-13.617-20.273-23.199-38.699-28.469-36.461-10.426-59.652-18.066-76.598-23.652-12.172-4.0156-20.977-6.9102-29.32-9.0938-21.793-5.6875-44.859-2.1641-63.09 9.3789-8.5-29.961-19.988-59.004-42.762-71.98-13.402-7.6484-29.523-8.7969-47.922-3.4141-36.398 10.645-60.121 16.566-77.391 20.887-12.441 3.1094-21.43 5.3555-29.656 7.9648-23.863 7.5859-42.984 25.629-51.133 48.281-5.3633 14.91-5.1875 29.867 0.27734 43.066 1.4883 12.43 7.3164 24.289 13.875 37.582 8.9062 18.082 19.008 38.59 23.273 68.445 2.2109 15.504 7.207 28.148 14.465 37.32 0.37109 17-0.37891 36.168-6.9102 59.199-8.3906 29.684-2.4688 53.648 16.242 65.82 12.793 8.3242 33.926 11.258 60.676 15.012 13.098 1.8516 27.941 3.9141 43.309 6.8828 7.1406 1.4531 14.398 2.2266 21.684 2.3047 3.4297 0.015625 6.8555-0.22656 10.246-0.72266 0.30469 0.097656 0.61328 0.16406 0.92578 0.20312 5.6133 0.69922 11.262 1.0586 16.918 1.0742 22.309 0 40.699-6.0312 53.703-17.77 14.613-13.172 22.125-33.168 21.699-57.82v0.003906c-0.027343-3.8086 0.15234-7.6133 0.53906-11.398 3.3945 1.1094 6.8164 2.2461 10.277 3.4609 11.832 4.1445 22.199 6.2148 31.281 6.2148h0.09375-0.003907c0.28516 0.13281 0.57813 0.24219 0.87891 0.32422 10.559 3.0078 21.473 4.5938 32.449 4.7188 15.391 0 28.879-3.6992 39.848-10.98 16.371-10.906 26.703-29.598 29.867-54.047 1.4531-11.203 6.2422-25.992 11.32-41.625 11.832-36.488 25.25-77.879 9.6367-107.17zm-446.12-46.34c6.8906-19.129 23.762-35.02 44.047-41.457 7.8906-2.5078 16.742-4.7188 28.988-7.7773 17.391-4.3477 41.207-10.293 77.816-20.996 15.613-4.5703 28.469-3.7812 39.312 2.3945 20.238 11.543 30.699 40.254 38.738 69.52-10.441 9.332-17.055 20.949-19.223 33.68-3.8672 8.1953-5.6602 17.352-6.957 27.371-1.5898-7.3086-2.875-15.648-4.1914-24.262-4.6992-30.645-10.027-65.375-33.215-78.688-13.254-7.6016-30.109-7.1875-51.512 1.2852v-0.003906c-25.43 10.234-51.578 18.578-78.23 24.973-4.5234 1.1211-8.418 2.0898-11.848 3.0508l-0.003906 0.003906c-10.164 2.8086-19.141 8.8438-25.574 17.203 0.49609-2.1328 1.1133-4.2344 1.8516-6.2969zm40.586 156.18c-1.168-4.0703-2.0469-8.2148-2.6367-12.406-4.4688-31.613-15.484-53.887-24.297-71.785-7.8516-15.945-14.059-28.543-12.949-41.762 1.8047-21.996 20.348-28.906 26.055-30.523 3.2656-0.92578 7.0859-1.8516 11.508-2.9609 27.137-6.4922 53.758-14.977 79.648-25.379 18.066-7.1484 31.773-7.7969 41.91-1.9805 18.555 10.645 23.449 42.547 27.75 70.742 2.1719 14.172 4.2461 27.648 7.9375 37.922-15.723-2.4492-27.98-4.625-38.082-6.3438-12.637-2.2031-21.766-3.793-30.34-4.7344-24.891-2.7734-49.68 6.0117-66.312 23.41-10.988 11.551-16.918 25.324-17.242 39.652-2.4766 8.1016-3.0312 16.777-2.9492 26.148zm160.75 157.34c-9.1094 7.5273-23.66 9.25-44.48 5.207-15.648-3.0234-30.645-5.125-43.879-6.9844-24.383-3.4141-45.445-6.3633-56.172-13.328-14.352-9.293-18.586-28.801-11.602-53.488 8.6836-30.738 7.6875-55.543 6.8828-75.477-0.71094-17.758-1.2773-31.789 5.0703-43.473 8.2422-15.133 22.133-17.703 30.59-17.703l-0.003906-0.003907c1.8555 0 3.7109 0.12891 5.5469 0.39062 3.3594 0.48047 7.2344 1.1641 11.719 1.9531v-0.003906c27.441 5.0703 55.215 8.1055 83.102 9.0859 19.426 0.78516 32.207 5.7422 39.117 15.168 12.645 17.262 4.1797 48.43-3.293 75.922-4.2812 15.723-8.3242 30.652-8.3242 42.355 0.089843 26.535-0.94531 49.371-14.273 60.379zm72.805-101.33c-2.8398 16.75-5.5508 32.578-5.3008 44.898 0.35938 21.348-5.875 38.414-18.035 49.375-10.027 9.0352-24.16 14.023-41.449 14.801 16.148-14.258 17.445-39.297 17.445-68.109 0-10.176 3.8398-24.402 7.918-39.422 8.1289-29.914 17.344-63.824 1.5352-85.391-9.0352-12.328-24.613-18.766-47.617-19.703-27.395-0.96484-54.676-3.9492-81.629-8.9258-4.5781-0.80469-8.5391-1.5-12.023-2.0078-10.434-1.5547-21.09 0.32812-30.359 5.3633 1.3164-1.7344 2.7305-3.3906 4.2383-4.9648 14.039-14.699 35.906-22.383 57.07-20.043 8.2227 0.92578 17.203 2.4688 29.598 4.625 17.656 3.082 41.844 7.2891 79.648 12.34 16.121 2.1562 27.562 8.0859 34.965 18.129 16.871 22.93 10.023 63.359 3.9961 99.035zm65.035 27.602c-10.109 6.1328-24.754 5.6992-44.77-1.3047-4.2461-1.4883-8.4453-2.8867-12.578-4.2266 0.92578-6.4023 2.0703-13.227 3.2578-20.211 6.4023-37.859 13.66-80.758-6.0312-107.47-9.1562-12.422-23.43-20.008-42.43-22.543-8.9922-1.2031-17.195-2.3594-24.723-3.4609 0.18359-1.7031 0.37109-3.375 0.53516-5.0117 1.8516-17.676 3.3477-31.645 11.32-42.234 6.2227-8.6523 16.297-13.699 26.953-13.512 3.8438 0.003906 7.668 0.55469 11.359 1.6367 3.2461 0.92578 6.9922 2.2031 11.32 3.6367 26.41 8.9922 53.445 16.027 80.887 21.051 19.09 3.5977 31.031 10.367 36.488 20.699 10.008 18.906-2.8945 48.516-14.281 74.637-6.5195 14.977-12.691 29.117-14.363 40.699-3.8086 26.223-8.168 48.672-22.949 57.613zm86.742-89.676c-5.2344 16.16-10.176 31.449-11.766 43.648-2.7734 21.172-11.387 37.156-25.02 46.25-11.23 7.4844-25.898 10.359-43.148 8.6133 18.055-11.746 22.984-36.332 27.121-64.84 1.4688-10.102 7.3438-23.586 13.559-37.848 12.395-28.426 26.426-60.633 13.922-84.273-7.1484-13.504-21.617-22.145-44.242-26.406l-0.003906-0.007813c-26.957-4.9375-53.52-11.852-79.461-20.684-4.4102-1.4609-8.2305-2.7305-11.645-3.6992h-0.003907c-10.098-3.043-20.91-2.7188-30.809 0.92578 1.5508-1.5234 3.1875-2.957 4.9023-4.293 16.039-12.504 38.785-16.926 59.375-11.555 8.0117 2.0898 16.648 4.9492 28.676 8.8984 17.027 5.6133 40.336 13.293 77.012 23.781 15.641 4.4766 26.094 12.023 31.957 23.012 13.371 25.043 0.72656 64.059-10.426 98.477z" fill="#fff"/>
</svg>
