<?xml version="1.0" encoding="UTF-8"?>
<svg width="752pt" height="752pt" version="1.1" viewBox="0 0 752 752" xmlns="http://www.w3.org/2000/svg">
 <defs>
  <clipPath id="e">
   <path d="m457 165h155.79v274h-155.79z"/>
  </clipPath>
  <clipPath id="d">
   <path d="m139.21 239h133.79v126h-133.79z"/>
  </clipPath>
  <clipPath id="c">
   <path d="m139.21 394h273.79v156h-273.79z"/>
  </clipPath>
  <clipPath id="b">
   <path d="m139.21 461h273.79v126h-273.79z"/>
  </clipPath>
  <clipPath id="a">
   <path d="m139.21 461h15.789v56h-15.789z"/>
  </clipPath>
 </defs>
 <path d="m337.96 409.37c-1.4766 0-2.918-0.44141-4.1406-1.2695-7.0078-4.7422-13.711-9.9258-20.059-15.523l-10.145-8.9531c-2.8555-2.5234-6.5312-3.918-10.344-3.9219h-13.02c-6.0039-0.007813-11.762-2.3945-16.008-6.6367-4.2422-4.2461-6.6328-10-6.6406-16.004v-110.11c0.007812-6.0039 2.3984-11.762 6.6406-16.004 4.2461-4.2461 10.004-6.6328 16.008-6.6367h14.422c2.8828-0.007813 5.6641-1.0781 7.8047-3.0078l10.746-9.7891c31.188-29.172 72.102-45.707 114.8-46.402h108.55c4.0859 0 7.3984 3.3125 7.3984 7.3984 0 4.0898-3.3125 7.4023-7.3984 7.4023h-108.55c-39.059 0.48828-76.496 15.684-104.85 42.555l-10.781 9.8281c-4.8633 4.375-11.172 6.8008-17.719 6.8125h-14.422c-4.332 0.003906-7.8398 3.5117-7.8477 7.8438v110.11c0.007812 4.3281 3.5156 7.8359 7.8477 7.8398h13.023-0.003906c7.4141 0.007812 14.566 2.7148 20.125 7.6172l10.152 8.9609h0.003907c5.875 5.1758 12.074 9.9727 18.562 14.363 2.6953 1.8242 3.8789 5.1914 2.9258 8.3008s-3.8281 5.2305-7.082 5.2266z" fill="#fff"/>
 <path d="m542.5 438.9h-111.29c-15.434-0.003907-30.785-2.1719-45.617-6.4297-3.9062-1.1445-6.1523-5.2266-5.0312-9.1367 1.1211-3.9102 5.1875-6.1836 9.1055-5.0859 13.508 3.875 27.488 5.8438 41.543 5.8516h111.29c4.0859 0 7.3984 3.3164 7.3984 7.4023s-3.3125 7.3984-7.3984 7.3984z" fill="#fff"/>
 <g clip-path="url(#e)">
  <path d="m535.09 438.9c-20.598-0.023438-40.348-8.2148-54.914-22.781-14.566-14.566-22.758-34.316-22.781-54.914v-118.39c-0.019532-4.2852 0.33984-8.5586 1.0781-12.777 3.1367-18.086 12.531-34.492 26.535-46.359 14.004-11.863 31.73-18.434 50.082-18.562h1.4844c20.328 0.44531 39.68 8.8203 53.918 23.336 14.242 14.52 22.242 34.027 22.297 54.363v118.39c-0.039063 20.594-8.2383 40.332-22.801 54.895s-34.305 22.762-54.898 22.801zm1.3086-258.99h-1.3086c-14.867 0.10547-29.23 5.4336-40.57 15.055-11.34 9.6211-18.938 22.918-21.465 37.574-0.58984 3.3906-0.87891 6.8242-0.85938 10.27v118.39c0 22.469 11.988 43.234 31.445 54.469 19.461 11.238 43.438 11.238 62.898 0 19.461-11.234 31.449-32 31.449-54.469v-118.39c-0.050782-16.441-6.5195-32.215-18.02-43.961-11.504-11.746-27.133-18.539-43.57-18.938z" fill="#fff"/>
 </g>
 <path d="m538.12 416.7h-6.0195c-13.91-0.015625-27.246-5.5469-37.082-15.383-9.8398-9.8398-15.371-23.176-15.387-37.086v-124.45c0.015626-13.91 5.5469-27.246 15.387-37.082 9.8359-9.8398 23.172-15.371 37.082-15.387h6.0195c13.914 0.015625 27.25 5.5469 37.086 15.387 9.8359 9.8359 15.371 23.172 15.387 37.082v124.45c-0.015625 13.91-5.5508 27.246-15.387 37.086-9.8359 9.8359-23.172 15.367-37.086 15.383zm-6.0195-214.59c-9.9844 0.011719-19.559 3.9844-26.621 11.047s-11.035 16.637-11.047 26.621v124.45c0.011718 9.9883 3.9844 19.562 11.047 26.621 7.0625 7.0625 16.637 11.035 26.621 11.047h6.0195c9.9883-0.011719 19.562-3.9844 26.625-11.047 7.0625-7.0586 11.035-16.633 11.047-26.621v-124.45c-0.011719-9.9844-3.9844-19.559-11.047-26.621s-16.637-11.035-26.625-11.047z" fill="#fff"/>
 <path d="m537.05 342.7h-3.9102c-6.3477-0.007813-12.438-2.5352-16.926-7.0234-4.4883-4.4883-7.0156-10.574-7.0234-16.926v-26.102c0.007813-6.3477 2.5352-12.434 7.0234-16.922 4.4883-4.4922 10.578-7.0156 16.926-7.0234h3.9102c6.3477 0.007813 12.434 2.5312 16.922 7.0234 4.4883 4.4883 7.0117 10.574 7.0156 16.922v26.102c-0.003907 6.3477-2.5273 12.438-7.0156 16.926-4.4883 4.4883-10.574 7.0156-16.922 7.0234zm-3.9102-59.199c-5.0508 0.007813-9.1445 4.1016-9.1484 9.1484v26.102c0.003906 5.0508 4.0977 9.1445 9.1484 9.1484h3.9102c5.0469-0.003906 9.1367-4.0977 9.1406-9.1484v-26.102c-0.003906-5.0469-4.0938-9.1406-9.1406-9.1484z" fill="#fff"/>
 <path d="m581.13 385.18c-2.2969 0.003906-4.4688-1.0625-5.8672-2.8828l-34.859-45.285v-0.003907c-2.4961-3.2344-1.8945-7.8828 1.3438-10.375 3.2383-2.4961 7.8828-1.8945 10.379 1.3438l34.859 45.285c1.7188 2.2344 2.0195 5.25 0.77734 7.7812-1.2422 2.5273-3.8125 4.1328-6.6328 4.1367z" fill="#fff"/>
 <path d="m550.49 290.38c-3.5312 0-6.5703-2.4922-7.2578-5.9531-0.69141-3.4609 1.1641-6.9297 4.4258-8.2812l32.707-13.543h-0.003906c3.7773-1.5625 8.1055 0.23047 9.668 4.0039 1.5664 3.7773-0.22656 8.1055-4 9.668l-32.707 13.543c-0.89844 0.37109-1.8594 0.56641-2.832 0.5625z" fill="#fff"/>
 <path d="m531.39 283.62c-3.2812 0.003906-6.168-2.1562-7.0938-5.3047l-22.199-75.195c-0.55859-1.8828-0.34375-3.9102 0.59375-5.6328 0.9375-1.7227 2.5234-3.0039 4.4062-3.5586 3.918-1.1602 8.0352 1.0781 9.1914 5l22.199 75.195c1.1562 3.918-1.082 8.0352-5 9.1914-0.67969 0.20312-1.3867 0.30469-2.0977 0.30469z" fill="#fff"/>
 <path d="m488.98 384.67c-3.7227-0.003906-6.8633-2.7734-7.3281-6.4688-0.46875-3.6953 1.8828-7.1602 5.4844-8.0898l76.535-19.77v-0.003906c3.9531-1.0156 7.9805 1.3633 9.0039 5.3164 1.0195 3.9492-1.3555 7.9805-5.3047 9.0078l-76.531 19.77c-0.60938 0.16016-1.2305 0.24219-1.8594 0.23828z" fill="#fff"/>
 <g clip-path="url(#d)">
  <path d="m176.38 364.9c-9.8125 0.046875-19.242-3.8086-26.215-10.719-6.9688-6.9062-10.906-16.301-10.949-26.117-0.039063-9.8125 3.8203-19.238 10.73-26.207-8.5234-8.8789-12.09-21.41-9.5117-33.445 2.582-12.035 10.965-22.008 22.379-26.613 11.414-4.6055 24.371-3.2461 34.582 3.6289 10.207 6.8711 16.34 18.367 16.367 30.676h51.25c4.0859 0 7.3984 3.3125 7.3984 7.3984 0 4.0898-3.3125 7.4023-7.3984 7.4023h-59.605c-2.3164 0-4.5-1.0859-5.8984-2.9297-1.3984-1.8477-1.8516-4.2422-1.2266-6.4727 0.47656-1.7617 0.70312-3.5781 0.67969-5.3984 0.035157-5.2852-1.8008-10.41-5.1875-14.469-3.3828-4.0586-8.0938-6.7852-13.297-7.7031-5.2031-0.91797-10.566 0.039062-15.133 2.6953-4.5664 2.6602-8.043 6.8477-9.8164 11.824-1.7734 4.9805-1.7266 10.426 0.13281 15.371 1.8555 4.9453 5.4062 9.0742 10.016 11.656 2.3477 1.3164 3.793 3.8086 3.7734 6.5-0.019531 2.6914-1.4961 5.1602-3.8594 6.4492-4.5742 2.5664-8.0938 6.6641-9.9414 11.574-1.8477 4.9102-1.8984 10.316-0.15234 15.262 1.75 4.9453 5.1914 9.1133 9.7148 11.77 4.5195 2.6562 9.8359 3.6328 15.008 2.75 5.1719-0.87891 9.8672-3.5586 13.254-7.5586 3.3906-4.0039 5.2578-9.0781 5.2734-14.324 0.019531-1.8203-0.21094-3.6367-0.6875-5.3984-0.62891-2.2305-0.17188-4.625 1.2266-6.4688 1.3984-1.8477 3.582-2.9336 5.8984-2.9297h59.828c4.0859 0 7.3984 3.3125 7.3984 7.3984 0 4.0859-3.3125 7.3984-7.3984 7.3984h-51.469c-0.03125 9.832-3.9648 19.25-10.93 26.184-6.9688 6.9375-16.402 10.828-26.234 10.816z" fill="#fff"/>
 </g>
 <path d="m442.74 209.51c-4.0859 0.019532-7.4141-3.2773-7.4336-7.3633-0.019532-4.0859 3.2773-7.4141 7.3633-7.4375h0.070313c4.0859 0 7.4023 3.3164 7.4023 7.4023s-3.3164 7.3984-7.4023 7.3984z" fill="#fff"/>
 <path d="m376.14 231.71c-4.0859 0.019531-7.4141-3.2773-7.4336-7.3633-0.019532-4.0859 3.2773-7.4141 7.3633-7.4375h0.070312c4.0898 0 7.4023 3.3164 7.4023 7.4023 0 4.0859-3.3125 7.3984-7.4023 7.3984z" fill="#fff"/>
 <path d="m420.54 261.3c-4.0859 0.019531-7.4141-3.2773-7.4336-7.3633-0.019531-4.0859 3.2773-7.4141 7.3633-7.4336h0.070313c4.0898 0 7.4023 3.3125 7.4023 7.3984s-3.3125 7.3984-7.4023 7.3984z" fill="#fff"/>
 <g clip-path="url(#c)">
  <path d="m335.3 549.89h-118.4c-4.2812 0.019531-8.5547-0.33984-12.773-1.0781-18.086-3.1367-34.492-12.531-46.359-26.535-11.863-14.004-18.434-31.73-18.562-50.082v-1.4844c0.44531-20.328 8.8203-39.68 23.336-53.918 14.52-14.242 34.027-22.242 54.359-22.297h118.4c27.758 0 53.406 14.809 67.285 38.848 13.879 24.039 13.879 53.66 0 77.699s-39.527 38.848-67.285 38.848zm-118.39-140.59h-0.003906c-16.438 0.050781-32.211 6.5156-43.957 18.02-11.746 11.504-18.539 27.133-18.938 43.57v1.3086c0.10547 14.867 5.4336 29.23 15.055 40.57 9.6211 11.34 22.918 18.938 37.574 21.465 3.3906 0.58984 6.8242 0.87891 10.266 0.85938h118.4c22.469 0 43.234-11.988 54.469-31.449 11.234-19.457 11.234-43.434 0-62.895-11.234-19.461-32-31.449-54.469-31.449z" fill="#fff"/>
 </g>
 <path d="m338.32 527.66h-124.45c-13.91-0.015625-27.246-5.5508-37.086-15.387-9.8359-9.8359-15.367-23.172-15.383-37.086v-6.0195c0.015625-13.91 5.5469-27.246 15.383-37.082 9.8398-9.8398 23.176-15.371 37.086-15.387h124.45c13.91 0.015625 27.25 5.5469 37.086 15.383 9.8398 9.8398 15.375 23.176 15.391 37.086v6.0195c-0.015625 13.914-5.5508 27.25-15.391 37.086-9.8359 9.8398-23.176 15.371-37.086 15.387zm-124.45-96.16c-9.9844 0.011719-19.559 3.9844-26.621 11.047s-11.035 16.637-11.047 26.621v6.0195c0.011718 9.9883 3.9844 19.562 11.047 26.625s16.637 11.035 26.621 11.047h124.45c9.9883-0.011719 19.562-3.9844 26.629-11.043 7.0625-7.0625 11.035-16.641 11.047-26.629v-6.0195c-0.011719-9.9883-3.9844-19.562-11.047-26.625-7.0664-7.0625-16.641-11.031-26.629-11.043z" fill="#fff"/>
 <path d="m292.86 498.1h-26.102c-6.3477-0.007812-12.434-2.5352-16.926-7.0234-4.4883-4.4883-7.0117-10.578-7.0195-16.926v-3.9023c0.007812-6.3477 2.5312-12.434 7.0195-16.926 4.4922-4.4883 10.578-7.0156 16.926-7.0234h26.102c6.3477 0.007813 12.438 2.5352 16.926 7.0234 4.4883 4.4922 7.0156 10.578 7.0234 16.926v3.9023c-0.007813 6.3477-2.5352 12.438-7.0234 16.926s-10.578 7.0156-16.926 7.0234zm-26.102-37c-5.0508 0.007813-9.1406 4.0977-9.1484 9.1484v3.9023c0.007812 5.0508 4.0977 9.1406 9.1484 9.1484h26.102c5.0508-0.007813 9.1445-4.0977 9.1484-9.1484v-3.9023c-0.003906-5.0508-4.0977-9.1406-9.1484-9.1484z" fill="#fff"/>
 <path d="m306.6 468.43c-3.1719 0.003907-5.9961-2.0117-7.0195-5.0117-1.0234-3.0039-0.019531-6.3242 2.4961-8.2578l45.285-34.852c3.2422-2.4805 7.8789-1.8711 10.371 1.3633 2.4883 3.2344 1.8906 7.875-1.3359 10.371l-45.285 34.852-0.003906 0.003906c-1.293 0.99219-2.8789 1.5312-4.5078 1.5312z" fill="#fff"/>
 <path d="m257.09 464.21c-2.9922 0-5.6914-1.8047-6.8359-4.5703l-13.543-32.707v0.003906c-1.5625-3.7773 0.23047-8.1055 4.0039-9.6719 3.7773-1.5625 8.1055 0.23047 9.668 4.0039l13.543 32.707c0.94531 2.2852 0.69141 4.8867-0.68359 6.9453-1.3711 2.0547-3.6797 3.2891-6.1523 3.2891z" fill="#fff"/>
 <path d="m175.12 505.5c-3.6758 0-6.7969-2.7031-7.3203-6.3398-0.52734-3.6406 1.6992-7.1133 5.2266-8.1562l75.195-22.199c3.918-1.1562 8.0352 1.082 9.1914 5 1.1562 3.9219-1.082 8.0352-5 9.1914l-75.195 22.199c-0.67969 0.20312-1.3867 0.30469-2.0977 0.30469z" fill="#fff"/>
 <path d="m351.37 525.71c-3.3711-0.003906-6.3125-2.2852-7.1523-5.5469l-19.773-76.535c-1.0156-3.9531 1.3633-7.9805 5.3125-9.0039 3.9531-1.0195 7.9844 1.3516 9.0117 5.3047l19.77 76.535v-0.003907c0.49219 1.9023 0.21094 3.918-0.78516 5.6094s-2.625 2.9141-4.5273 3.4023c-0.60547 0.16016-1.2305 0.24219-1.8555 0.23828z" fill="#fff"/>
 <g clip-path="url(#b)">
  <path d="m335.3 586.89h-118.4c-4.2812 0.015625-8.5547-0.34375-12.773-1.0781-18.086-3.1406-34.492-12.531-46.359-26.535-11.863-14.004-18.434-31.73-18.562-50.086v-1.4805c0-4.0859 3.3125-7.3984 7.3984-7.3984 4.0898 0 7.4023 3.3125 7.4023 7.3984v1.4805c0.10547 14.871 5.4336 29.23 15.055 40.57s22.918 18.938 37.574 21.469c3.3906 0.58984 6.8242 0.875 10.266 0.85938h118.4c16.672-0.019531 32.66-6.6523 44.453-18.445 11.789-11.789 18.422-27.777 18.441-44.453l-0.10938-40.676h0.003906c-0.011719-4.0859 3.2891-7.4102 7.375-7.4219h0.023438c4.0781 0.003906 7.3828 3.3008 7.3984 7.3789l0.10938 40.699c-0.019531 20.602-8.2109 40.355-22.777 54.926-14.566 14.57-34.316 22.77-54.918 22.793z" fill="#fff"/>
 </g>
 <g clip-path="url(#a)">
  <path d="m146.61 516.6h-0.015625 0.003906c-4.0898-0.011718-7.3945-3.3281-7.3867-7.418l0.09375-40.699v0.003906c0.007812-4.082 3.3203-7.3867 7.3984-7.3867h0.015625c4.0859 0.007813 7.3945 3.3281 7.3867 7.4141l-0.09375 40.699c-0.011719 4.082-3.3203 7.3828-7.4023 7.3867z" fill="#fff"/>
 </g>
</svg>
