<?xml version="1.0" encoding="UTF-8"?>
<svg width="752pt" height="752pt" version="1.1" viewBox="0 0 752 752" xmlns="http://www.w3.org/2000/svg">
 <g fill="#fff">
  <path d="m240.77 515.68c3.5078 3.2266 7.1719 6.2969 10.914 9.2734v-0.003906c9.4922 7.5391 19.645 14.207 30.34 19.922 4.1445 2.2188 8.3633 4.2344 12.578 6.1406v24.781c0 5.8867 2.3398 11.535 6.5 15.699 4.1641 4.1602 9.8125 6.5 15.699 6.5h119.29c5.8867 0 11.535-2.3398 15.699-6.5 4.1641-4.1641 6.5-9.8125 6.5-15.699v-25.16c3.9453-1.7891 7.8594-3.6992 11.699-5.7422 14.934-7.9453 28.797-17.762 41.254-29.203l0.21484-0.19922v-0.003906c21.223-19.562 37.953-43.496 49.027-70.148 11.078-26.656 16.242-55.395 15.137-84.238l-0.29688-7.6875c-1.9375-51.574-23.789-100.39-60.961-136.19-37.172-35.801-86.77-55.801-138.38-55.801s-101.21 20-138.38 55.801c-37.172 35.805-59.023 84.617-60.961 136.19l-0.29688 7.7031h0.003906c-1.1016 28.891 4.0898 57.68 15.215 84.367 11.121 26.688 27.914 50.641 49.207 70.199zm33.574 7.3477c-2.9141-1.918-5.7734-3.9102-8.5781-5.9727-1.1758-0.875-2.3398-1.7578-3.5-2.6484-2.9609-2.2852-5.8242-4.6602-8.5898-7.125-0.5625-0.49609-1.1562-0.96875-1.7109-1.4805-6.0547-14.957-9.1602-30.938-9.1523-47.07v-16.133c0-5.2852 2.8203-10.172 7.3984-12.816s10.219-2.6445 14.801 0c4.5781 2.6445 7.3984 7.5312 7.3984 12.816v31.301c0.011719 9 0.51953 17.988 1.5234 26.93l2.5977 23.68c-0.73828-0.51172-1.457-1-2.1914-1.4805zm169.15 52.766c0 1.9648-0.78125 3.8438-2.168 5.2344-1.3867 1.3867-3.2695 2.1641-5.2344 2.1641h-119.28c-4.0859 0-7.4023-3.3125-7.4023-7.3984v-18.824c3.8711 1.3672 7.7539 2.6406 11.66 3.7461l3.0938 0.88672c0.19922 0.050782 0.41406 0.10547 0.62109 0.14063h0.003906c10.891 2.8867 22.008 4.832 33.23 5.8086 6.1484 0.55469 12.227 0.84375 17.988 0.84375 5.7656 0 11.84-0.28906 17.961-0.84375 5.6367-0.48828 11.27-1.2266 16.855-2.2188 1.6875-0.29688 3.3281-0.73828 5.0078-1.0938 3.7969-0.73828 7.6055-1.4805 11.344-2.4844 0.22266-0.042968 0.45703-0.097656 0.67188-0.15625l3.0703-0.87891c4.2188-1.1836 8.4062-2.5898 12.578-4.0859zm-95.562-45.359 2.3594 21.191h0.003906c-6.3398-0.85938-12.629-2.0508-18.84-3.5664l-3.8125-8.6367v0.003906c-7.1602-16.082-10.852-33.492-10.832-51.098v-16.129c0-5.2891 2.8203-10.176 7.3984-12.816 4.5781-2.6445 10.223-2.6445 14.801 0 4.5781 2.6406 7.3984 7.5273 7.3984 12.816v31.301c0.011718 8.9961 0.52344 17.988 1.5234 26.934zm53.797 21.184 2.3516-21.184c1.0039-8.9453 1.5117-17.938 1.5273-26.934v-31.301c0-5.2891 2.8203-10.176 7.3984-12.816 4.5781-2.6445 10.219-2.6445 14.801 0 4.5781 2.6406 7.3984 7.5273 7.3984 12.816v16.133-0.003906c0.015625 17.594-3.6758 34.988-10.832 51.059l-3.8242 8.6445c-3.6992 0.92578-7.4727 1.7969-11.262 2.4844-0.8125 0.14844-1.6367 0.27344-2.457 0.40625-1.6992 0.3125-3.3984 0.45312-5.1016 0.69531zm107.47-92.887c-0.007812 16.16-3.1367 32.168-9.2109 47.145-7.6367 6.8711-15.836 13.094-24.508 18.602l2.5977-23.641c1-8.9453 1.5117-17.938 1.5234-26.938v-31.301c0-5.2852 2.8203-10.172 7.3984-12.816s10.223-2.6445 14.801 0 7.3984 7.5312 7.3984 12.816zm-318.05-97.094 0.29687-7.7109v0.003907c1.8125-47.734 22.051-92.91 56.465-126.04 34.414-33.129 80.324-51.641 128.09-51.641 47.77 0 93.68 18.512 128.09 51.641 34.41 33.129 54.648 78.305 56.465 126.04l0.29688 7.6875h-0.003907c1.6758 43.609-12.141 86.406-39.004 120.81 1.3828-7.8203 2.1016-15.742 2.1484-23.68v-16.148c0-10.574-5.6406-20.344-14.801-25.633-9.1562-5.2852-20.441-5.2852-29.598 0-9.1602 5.2891-14.801 15.059-14.801 25.633v31.301c-0.011719 8.457-0.49219 16.906-1.4336 25.309l-3.7734 34.344v-0.003906c-6.668 3.4062-13.543 6.3945-20.578 8.9492 7.2266-17.145 10.965-35.562 10.988-54.168v-16.129c0-10.578-5.6445-20.348-14.801-25.637-9.1562-5.2852-20.441-5.2852-29.598 0-9.1602 5.2891-14.801 15.059-14.801 25.637v31.301c-0.011719 8.4531-0.49219 16.898-1.4336 25.297l-2.7227 24.418-0.003906 0.003906c-7.0859 0.42969-14.191 0.42969-21.281 0l-2.7227-24.418v-0.003906c-0.94141-8.3984-1.4219-16.844-1.4336-25.297v-31.301c0-10.578-5.6445-20.348-14.801-25.637-9.1562-5.2852-20.441-5.2852-29.598 0-9.1602 5.2891-14.801 15.059-14.801 25.637v16.133-0.003906c0.023438 18.605 3.7578 37.023 10.988 54.168-7.0469-2.5547-13.93-5.543-20.605-8.9492l-3.7734-34.348h-0.003906c-0.93359-8.4023-1.4023-16.848-1.4062-25.301v-31.301c0-10.574-5.6406-20.344-14.797-25.633-9.1602-5.2852-20.441-5.2852-29.598 0-9.1602 5.2891-14.801 15.059-14.801 25.633v16.133c0.046876 7.9375 0.76172 15.859 2.1445 23.68-26.852-34.391-40.668-77.172-39.004-120.77z"/>
  <path d="m293.67 398.2h164.66c14.957 0 29.188-6.4648 39.023-17.734 9.8359-11.27 14.32-26.242 12.301-41.062l-10.086-73.996c-1.7344-12.395-7.8789-23.746-17.309-31.973-9.4258-8.2305-21.504-12.781-34.016-12.824h-144.49c-12.516 0.039063-24.594 4.5938-34.023 12.82-9.4297 8.2305-15.574 19.582-17.309 31.977l-10.086 73.996c-2.0195 14.824 2.4648 29.797 12.305 41.066 9.8359 11.27 24.066 17.734 39.027 17.73zm-36.656-56.793 10.086-73.996c1.2344-8.8516 5.625-16.961 12.355-22.84 6.7344-5.8789 15.363-9.1328 24.301-9.1641h144.49c8.9375 0.03125 17.562 3.2852 24.297 9.1641 6.7344 5.8789 11.121 13.988 12.359 22.84l10.086 73.996c1.4414 10.586-1.7617 21.281-8.7852 29.328-7.0273 8.0469-17.188 12.668-27.871 12.668h-164.66c-10.684 0-20.844-4.6211-27.871-12.668-7.0234-8.0469-10.23-18.742-8.7852-29.328z"/>
  <path d="m316.8 324.2c9.8125 0 19.223-3.8984 26.16-10.836s10.836-16.348 10.836-26.164c0-9.8125-3.8984-19.223-10.836-26.16s-16.348-10.836-26.16-10.836-19.223 3.8984-26.164 10.836c-6.9375 6.9375-10.836 16.348-10.836 26.16 0.011718 9.8125 3.9141 19.215 10.852 26.152 6.9336 6.9336 16.34 10.836 26.148 10.848zm0-59.199v0.003906c5.8867 0 11.531 2.3359 15.695 6.5 4.1641 4.1641 6.5039 9.8086 6.5039 15.695 0 5.8906-2.3398 11.535-6.5039 15.699-4.1641 4.1641-9.8086 6.5-15.695 6.5-5.8867 0-11.535-2.3359-15.699-6.5-4.1602-4.1641-6.5-9.8086-6.5-15.699 0-5.8867 2.3398-11.531 6.5-15.695 4.1641-4.1641 9.8125-6.5 15.699-6.5z"/>
  <path d="m316.8 298.3c4.4883 0 8.5352-2.7031 10.254-6.8516s0.76953-8.9219-2.4062-12.098c-3.1758-3.1719-7.9492-4.125-12.098-2.4062-4.1445 1.7188-6.8516 5.7656-6.8516 10.254 0 6.1328 4.9688 11.102 11.102 11.102zm0-14.801c1.4961 0 2.8438 0.90234 3.418 2.2852 0.57031 1.3828 0.25391 2.9727-0.80078 4.0312-1.0586 1.0586-2.6523 1.375-4.0352 0.80469-1.3828-0.57422-2.2812-1.9219-2.2812-3.4219 0-2.043 1.6562-3.6992 3.6992-3.6992z"/>
  <path d="m435.2 324.2c9.8125 0 19.223-3.8984 26.16-10.836 6.9414-6.9375 10.84-16.348 10.84-26.164 0-9.8125-3.8984-19.223-10.84-26.16-6.9375-6.9375-16.348-10.836-26.16-10.836s-19.223 3.8984-26.16 10.836c-6.9414 6.9375-10.84 16.348-10.84 26.16 0.011719 9.8125 3.9141 19.215 10.852 26.152 6.9336 6.9336 16.34 10.836 26.148 10.848zm0-59.199v0.003906c5.8867 0 11.535 2.3359 15.695 6.5 4.1641 4.1641 6.5039 9.8086 6.5039 15.695 0 5.8906-2.3398 11.535-6.5039 15.699-4.1602 4.1641-9.8086 6.5-15.695 6.5s-11.535-2.3359-15.699-6.5c-4.1602-4.1641-6.5-9.8086-6.5-15.699 0-5.8867 2.3398-11.531 6.5-15.695 4.1641-4.1641 9.8125-6.5 15.699-6.5z"/>
  <path d="m435.2 298.3c4.4883 0 8.5352-2.7031 10.254-6.8516s0.76953-8.9219-2.4062-12.098c-3.1719-3.1719-7.9492-4.125-12.094-2.4062-4.1484 1.7188-6.8555 5.7656-6.8555 10.254 0 6.1328 4.9727 11.102 11.102 11.102zm0-14.801c1.4961 0 2.8438 0.90234 3.418 2.2852 0.57422 1.3828 0.25781 2.9727-0.80078 4.0312-1.0586 1.0586-2.6523 1.375-4.0352 0.80469-1.3789-0.57422-2.2812-1.9219-2.2812-3.4219 0-2.043 1.6562-3.6992 3.6992-3.6992z"/>
  <path d="m361.2 342.5c3.4297 0 6.4102-2.3594 7.1992-5.6953 0.78906-3.3398-0.82031-6.7852-3.8867-8.3203-11.406-5.668-24.805-5.668-36.211 0-1.7734 0.86719-3.125 2.4062-3.7578 4.2773-0.62891 1.8672-0.48828 3.9102 0.39453 5.6758 0.87891 1.7656 2.4297 3.1016 4.3047 3.7188 1.8711 0.61719 3.9141 0.46094 5.6719-0.43359 7.2383-3.6055 15.746-3.6055 22.984 0 1.0234 0.51172 2.1523 0.77734 3.3008 0.77734z"/>
  <path d="m423.71 328.48c-11.406-5.668-24.809-5.668-36.215 0-1.7695 0.86719-3.1211 2.4062-3.7539 4.2773-0.62891 1.8672-0.48828 3.9102 0.39062 5.6758 0.88281 1.7656 2.4336 3.1016 4.3047 3.7188 1.875 0.61719 3.918 0.46094 5.6758-0.43359 7.2383-3.6055 15.746-3.6055 22.984 0 1.7539 0.89453 3.7969 1.0508 5.6719 0.43359 1.875-0.61719 3.4219-1.9531 4.3047-3.7188 0.88281-1.7656 1.0234-3.8086 0.39063-5.6758-0.63281-1.8711-1.9805-3.4102-3.7539-4.2773z"/>
  <path d="m376 271.12c7.5156 0.015625 14.727-2.9688 20.031-8.2891 2.8047-2.9023 2.7656-7.5156-0.089844-10.371-2.8516-2.8555-7.4688-2.8945-10.371-0.089844-5.2891 5.2734-13.848 5.2734-19.137 0-2.9023-2.8047-7.5195-2.7656-10.371 0.089844-2.8555 2.8555-2.8945 7.4688-0.09375 10.371 5.3086 5.3203 12.52 8.3047 20.031 8.2891z"/>
  <path d="m390.8 353.8h-29.598c-4.0859 0-7.4023 3.3164-7.4023 7.4023s3.3164 7.3984 7.4023 7.3984h29.598c4.0859 0 7.3984-3.3125 7.3984-7.3984s-3.3125-7.4023-7.3984-7.4023z"/>
  <path d="m368.6 413h14.801v14.801h-14.801z"/>
  <path d="m368.6 442.6h14.801v14.801h-14.801z"/>
  <path d="m398.2 413h14.801v14.801h-14.801z"/>
  <path d="m339 413h14.801v14.801h-14.801z"/>
  <path d="m287.2 339h14.801v14.801h-14.801z"/>
  <path d="m442.6 339h14.801v14.801h-14.801z"/>
 </g>
</svg>
