<?xml version="1.0" encoding="UTF-8"?>
<svg width="752pt" height="752pt" version="1.1" viewBox="0 0 752 752" xmlns="http://www.w3.org/2000/svg">
 <defs>
  <clipPath id="a">
   <path d="m226 139.21h352v473.58h-352z"/>
  </clipPath>
 </defs>
 <path d="m238.2 292.88c-3.5039-15.242-12.285-25.012-24.371-26.836-7.0938-0.71094-14.242 0.72266-20.512 4.1172-6.2695 3.3945-11.379 8.5938-14.66 14.922-4.3672 9.2539-5.1758 19.789-2.2695 29.602 2.1484 7.1953 7.1875 13.18 13.91 16.523 4.1406 2.1211 8.7188 3.2383 13.371 3.2578 7.7266-0.082032 15.145-3.0391 20.816-8.2891 99.305 53.23 107.94 269.4 108.04 271.82-0.042969 0.34375-0.042969 0.69141 0 1.0352 1.7109 5.918 6.2344 10.605 12.086 12.531 0.88672 0.22656 1.7969 0.33984 2.7148 0.34375 5.8398-0.53516 10.57-4.9609 11.492-10.754 0.0625-0.40625 0.0625-0.82422 0-1.2305-6.4609-134.28-39.168-210.59-65.512-251-24.516-38.188-48.148-52.441-55.102-56.043zm-44.004 30.637v-0.003906c-4.7148-2.3398-8.2109-6.5703-9.6211-11.641-2.2148-7.582-1.6172-15.711 1.6797-22.891 4.6445-8.707 13.523-14.328 23.383-14.801 0.94922-0.070313 1.9062-0.070313 2.8594 0 8.2891 1.2812 14.305 8.0391 17.117 19.191-7.2031 4.9336-15.934 14.207-13.074 26.391v0.39453 0.9375h0.003906c-3.1289 2.4531-6.8789 3.9766-10.828 4.4062-3.9492 0.42578-7.9414-0.26172-11.52-1.9883zm152.58 279.41c-2.75-1.0859-4.8711-3.3516-5.7734-6.168-0.59375-15.883-10.805-229.09-116.42-280.3-0.73828-7.9414 6.5117-13.664 9.8672-15.883 6.4609 3.5039 28.957 17.414 52.293 53.523 25.504 39.465 57.176 113.91 63.59 245.18-0.25 1.332-1.5312 4.293-3.5547 3.6523z" fill="#fff"/>
 <g clip-path="url(#a)">
  <path d="m573.3 299.04c-3.8945-7.9219-11.125-13.688-19.711-15.73-8.5898-2.043-17.641-0.14453-24.688 5.1758-6.125 4.4531-10.141 11.234-11.098 18.746-0.94922 8.0898 0.78125 16.273 4.9336 23.285-0.60547 5.9219-2.0352 11.734-4.2422 17.266-1.2031-1.7461-2.5391-3.3945-3.9961-4.9336l-0.39453-0.39453c-8.582-7.1055-17.859-9.0781-25.504-5.4766-3.4844 1.7656-6.4023 4.4805-8.4102 7.8359-2.0039 3.3516-3.0234 7.1992-2.9375 11.105 0.054688 5.6562 2.875 10.926 7.5469 14.109-11.395 19.734-25.75 95.012-31.867 129.1-0.16016 0.90625-0.023438 1.8438 0.39453 2.6641-3.6523 10.41-6.957 19.734-9.8672 27.973 0.39453-11.891 0.54297-23.777 0.49219-35.566 26.445-165.21 58.312-228.51 66.797-243.16 2.7031 1.5625 5.7578 2.4102 8.8789 2.4648 4.3203-0.066407 8.4609-1.7148 11.645-4.6367 5.2539-5.2188 8.6445-12.023 9.6406-19.363 1-7.3398-0.44922-14.805-4.1172-21.238-4.3086-7.5625-10.73-13.707-18.473-17.684-7.7422-3.9766-16.477-5.6133-25.137-4.7109-11.809 0.35547-22.945 5.5664-30.781 14.402-2.8359 3.2148-4.9102 7.0273-6.0703 11.152-1.3984 5.3906-1.0352 11.09 1.0312 16.262 2.0664 5.1758 5.7344 9.5547 10.465 12.496 1.168 0.75 2.5117 1.1914 3.8984 1.2852-11 30.781-25.012 101.47-32.805 143.06-4.9336-53.77-11.348-93.73-12.824-102.41 14.406-20.129 9.0781-34.531 4.4883-41.637l-0.003906-0.003907c-4.8398-6.5273-11.523-11.453-19.191-14.145s-15.969-3.0234-23.824-0.94922c-2.8164 0.75781-5.5312 1.8516-8.0898 3.2539l-0.34375-12.383h-0.003907c2.6562 1.0625 5.4805 1.6484 8.3398 1.7266 4.2891-0.054688 8.3789-1.832 11.344-4.9336 7.0273-7.168 10.621-17.02 9.8672-27.031-0.11328-8.3906-3.875-16.32-10.309-21.707-8.9766-6.9062-39.957-26.539-72.91-1.5781h-0.003906c-4.4648-7.5625-10.867-13.797-18.547-18.055-12.184-6.5625-26.984-7.25-43.855-2.0703v-0.003907c-11.34 3.5898-21.137 10.898-27.809 20.746-6.668 9.8477-9.8203 21.66-8.9453 33.52 1.8242 23.926 19.734 40.848 47.754 45.68 60.383 125.55 87.711 299.39 92.547 350.5 0.3125 4.0469 1.8477 7.9023 4.4023 11.059 2.5547 3.1523 6.0078 5.457 9.9023 6.6016 1.7461 0.51172 3.5586 0.77734 5.375 0.78906 4.2539-0.035156 8.3008-1.8203 11.199-4.9336 3.75-3.9805 5.6797-9.3398 5.3281-14.797-1.0859-20.918-3.0586-42.672-5.8711-65.066 0.24609-6.6602 4.9336-139.8-9.8672-226.93 30.586 98.664 24.664 240.24 22.348 287.65 0 3.4023-0.29688 6.3125-0.34375 8.582-0.17969 3.2969 0.67578 6.5625 2.4453 9.3516 1.7656 2.7852 4.3633 4.9492 7.4219 6.1875 1.5703 0.625 3.2422 0.96094 4.9336 0.98828 2.6719-0.027344 5.2773-0.83203 7.4961-2.3203 3.4336-2.2812 5.8281-5.8281 6.6602-9.8672l0.88672-0.83984v0.003907c14.566-14.465 25.254-32.363 31.082-52.047 13.074-43.855 45.039-130.58 55.352-147.5 11.348-18.598 22.051-49.676 25.16-58.949h-0.003906c6.7656-1.1094 12.91-4.6094 17.316-9.8672 11.938-12.727 10.902-22.102 5.4727-32.117zm-80.953 45.633c4.5391-2.1211 10.309-0.64062 16.23 4.1914 3.5039 3.75 6.2656 8.832 5.5742 10.359-1.0859 2.5156-2.2695 5.2305-3.6016 8.0898v0.003906c-2.8711 1.0391-5.9648 1.3125-8.9766 0.78906 0 0-15.637-3.0586-15.637-12.184v-0.003906c-0.21094-4.6719 2.2852-9.0469 6.4102-11.246zm-0.34375 29.305c2.6367 1.1094 5.3828 1.9531 8.1875 2.5156 1.6367 0.20703 3.2852 0.30469 4.9336 0.29297h0.88672c-1.8242 3.6016-3.7969 7.3516-6.0195 11.395l0.003906 0.003906c-11.52 22.285-21.637 45.27-30.289 68.816 8.3867-40.402 17.215-75.477 22.297-83.023zm-27.23-160.77c0.82812-2.8867 2.2969-5.5508 4.293-7.793 6.3086-7.0273 15.223-11.164 24.664-11.445 7.1367-0.82812 14.355 0.47656 20.75 3.75 6.3906 3.2773 11.668 8.375 15.164 14.652 2.6367 4.7305 3.6875 10.184 2.9922 15.555-0.69141 5.3711-3.0898 10.383-6.8398 14.289-1.8516 1.7422-4.332 2.6562-6.8711 2.5352-2.5391-0.11719-4.9219-1.2656-6.5977-3.1758-7.2461-6.3906-16.582-9.9023-26.242-9.8672-2.9062 0.03125-5.8047 0.24609-8.6836 0.64062-1.6289 0.27734-3.2812 0.39062-4.9336 0.34766-3.1836-2.0156-5.6445-4.9844-7.0273-8.4883-1.3828-3.5039-1.6172-7.3555-0.66797-11zm16.477 27.18v0.003906c7.9922-1.1367 16.117 0.83984 22.691 5.5234-8.0391 13.27-35.469 66.254-60.531 203.29-0.44531-10.805-1.0352-21.359-1.7266-31.621 0.79297-5.2773 24.223-138.47 39.418-177.05zm-91.609-6.9023c2.6133-0.65234 5.2969-0.98438 7.9922-0.98828 10.117-0.27344 19.734 4.3789 25.801 12.48 5.5742 8.4844 4.3398 19.387-3.5039 30.883-9.8672-2.7617-25.898-3.0586-33.793 10.559l0.003906-0.003907c-1.2734-0.24609-2.5234-0.57422-3.75-0.98437h-0.29688c-8.1133-2.582-14.324-9.1641-16.426-17.414-1.707-6.0039-0.8125-12.449 2.4648-17.762 2.5586-4.1602 5.9141-7.7812 9.8672-10.652 3.4531-2.7656 7.4062-4.8438 11.641-6.1172zm3.6016-62.453c4.4375 3.8828 6.9727 9.4961 6.957 15.391 0.55859 7.5195-2.0938 14.922-7.3008 20.371-4.2422 3.9961-8.1406 2.5664-15.195-0.54297v0.003906c-5.5156-3.1875-11.965-4.3711-18.254-3.3555-10.34 3.1953-21.152 4.5977-31.965 4.1445 4.0469-11.84 7.1523-26.047 2.8125-34.531 0-0.44531-0.44531-1.2812-0.83984-2.3203 27.871-21.902 53.77-6.8594 63.785 0.83984zm-42.621 116.47 5.7227 24.664c0 0.34375 4.6875 23.434 8.0391 51.5-11.789-44.398-25.996-89.387-42.523-134.13l-1.6289-4.4883c0.98828-2.0234 2.5664-5.4766 4.293-9.8672v0.003907c3.7695 0.59375 7.5977 0.72656 11.395 0.39453 1.9766 17.367 13.273 65.762 14.703 71.926zm-82.629-54.953c-19.734-5.5742-31.719-18.695-33.051-36.258h-0.003906c-0.64844-9.918 2.0195-19.77 7.582-28.004 5.5664-8.2344 13.711-14.383 23.152-17.48 5.9961-1.9336 12.25-2.9648 18.547-3.0586 6.5078-0.097656 12.93 1.4297 18.699 4.4375 9.0547 5.2422 15.934 13.555 19.387 23.434 0.09375 0.3125 0.22656 0.60937 0.39453 0.88672 3.6992 6.5117-1.0352 23.188-6.5117 36.605-2.3398-7.3164-7.4375-13.438-14.207-17.07-7.4219-2.6836-15.66-1.9062-22.445 2.1211-7.207 2.875-12.59 9.0469-14.457 16.578-0.99609 6.0938 0.027344 12.348 2.9141 17.809zm123.33 368.16c-2.1445 2.1875-5.3867 2.8867-8.2383 1.7734-4.4336-1.3555-7.6055-5.25-8.043-9.8633-4.9336-51.945-32.707-228.7-94.172-355.19-0.14844-0.30078-0.33203-0.58203-0.54297-0.83984 0 0-8.832-10.508-6.957-19.734v0.003906c1.3828-4.9219 5.0586-8.8711 9.8672-10.605 4.5664-2.8555 10.148-3.5742 15.293-1.9766 7.25 3.1562 10.605 14.207 12.875 21.559v0.59375c0.24609 0.88672 0.88672 2.6133 2.3203 6.4609h-0.003906c21.949 59.074 40.074 119.5 54.266 180.9v0.9375c0 0.88281 0.27734 1.7461 0.78906 2.4648 13.402 57.691 21.934 116.41 25.504 175.52 0.12891 2.9531-0.9375 5.832-2.957 7.9922zm-2.1211-124.71c-3.6172-20.852-7.875-42.047-12.777-63.59-0.44531-44.742-11.594-101.32-11.691-102.02l-5.7734-24.664c-5.2773-22.445-13.172-58.457-14.801-70.789v-0.003906c5.8164-0.87891 11.578-2.0664 17.27-3.5508 3.0742-0.51953 6.2305-0.050781 9.0273 1.332-0.046875 0.35938-0.046875 0.72656 0 1.0859l0.58984 20.273c-4.1211 3.2891-7.6289 7.2812-10.359 11.793-4.4141 7.3008-5.6094 16.102-3.3047 24.32 2.7305 10.105 10.031 18.355 19.734 22.297 10.504 54.906 12.281 132.85 12.086 183.51zm37.543 127.27h-0.003907c-1.4258 1.0547-3.3086 1.2656-4.9336 0.54297-2.8398-1.2539-4.5938-4.1523-4.3906-7.25 0-2.2695 0-4.9336 0.34375-8.5352 2.1211-48.738 8.5352-196.39-24.664-296.58 5.8711-11 19.238-8.7305 24.664-7.25 3.6992 21.953 29.305 182.53 12.035 313.85l0.003906-0.003906c-0.19922 2.1211-1.3164 4.0469-3.0586 5.2773zm91.309-207.54c-10.805 17.711-42.723 104.24-56.238 149.52-4.3633 14.988-11.75 28.922-21.703 40.945 1.0352-9.3242 1.8242-18.746 2.4648-28.266v-0.003906c0.83984-0.51953 1.4688-1.3242 1.7773-2.2656 0.39453-1.1836 38.281-118.39 63.145-163.39 4.1914-7.6445 7.7461-14.801 10.754-21.113v-0.29688c1.2344-2.7148 2.418-5.2773 3.4531-7.793v-0.34766c3.5977-8.1289 6.4062-16.59 8.3828-25.258 3.4258 2.043 7.1836 3.4609 11.102 4.1953-6.0781 18.68-13.82 36.773-23.137 54.066zm43.41-69.902c-3.7891 4.582-9.4453 7.2109-15.391 7.1523-5.9531-0.30469-11.598-2.7578-15.883-6.9062-3.3125-5.3516-4.7539-11.648-4.0938-17.906 0.70312-5.1602 3.5039-9.8008 7.7422-12.828 2.8828-2.2266 6.2734-3.6992 9.8672-4.2891 0.91797-0.070313 1.8438-0.070313 2.7617 0 4 0.11328 7.8945 1.3125 11.262 3.4688 3.3711 2.1523 6.0938 5.1836 7.8789 8.7617 3.8008 6.4141 5.5273 11.988-4.1445 22.742z" fill="#fff"/>
 </g>
</svg>
