<?xml version="1.0" encoding="UTF-8"?>
<svg width="752pt" height="752pt" version="1.1" viewBox="0 0 752 752" xmlns="http://www.w3.org/2000/svg">
 <defs>
  <clipPath id="a">
   <path d="m257 139.21h238v473.58h-238z"/>
  </clipPath>
 </defs>
 <g clip-path="url(#a)">
  <path d="m466.41 366.32c-17.223-37.672-25.832-78.574-25.832-119.47v-30.137l18.297-36.594c2.1523-4.3086 3.2266-8.6133 3.2266-12.918 0-15.07-12.914-27.984-27.984-27.984h-116.24c-15.066 0-27.984 12.914-27.984 27.984 0 4.3047 1.0781 8.6094 3.2305 12.914l18.297 36.598v30.137c0 41.977-8.6094 81.801-25.832 119.47-18.297 40.898-27.984 83.953-27.984 129.16v86.105c0 18.297 13.992 32.289 32.289 32.289h154.99l17.219-0.003906c18.297 0 32.289-13.992 32.289-32.289v-86.105c0.003907-45.207-9.6836-88.258-27.98-129.16zm-43.055-65.656h-95.793c3.2305-18.297 4.3047-35.52 4.3047-53.816v-21.527h86.105v21.527c1.0781 18.297 3.2305 35.52 5.3828 53.816zm-105.48-139.92h116.24c3.2305 0 6.4609 3.2266 6.4609 6.457 0 1.0781 0 2.1523-1.0781 3.2305l-16.145 33.363h-94.715l-17.223-33.367v-3.2266c0-3.2305 3.2305-6.457 6.457-6.457zm154.99 419.77c0 6.457-4.3047 10.762-10.762 10.762h-17.223c-6.457 0-13.992-3.2305-18.297-7.5352-8.6094-8.6094-20.449-13.992-33.367-13.992h-34.441c-12.914 0-24.754 5.3828-33.367 13.992-5.3828 5.3828-11.84 7.5352-18.297 7.5352h-17.223c-6.457 0-10.762-4.3047-10.762-10.762v-86.105c0-41.977 8.6094-81.801 25.832-119.47 7.5352-17.223 13.992-34.441 18.297-52.738h105.48c4.3047 18.297 10.762 35.52 18.297 52.738 17.219 37.672 25.832 78.57 25.832 119.47z" fill="#fff"/>
 </g>
 <path d="m419.05 462.11v-53.816l-43.055-21.527-43.055 21.527v53.816l43.055 21.527zm-75.344-47.355 32.289-16.145 32.289 16.145v40.898l-32.289 16.145-32.289-16.145z" fill="#fff"/>
 <path d="m386.77 440.58v-10.762c0-6.457-4.3047-10.762-10.762-10.762-6.457 0-10.762 4.3047-10.762 10.762v10.762c0 6.457 4.3047 10.762 10.762 10.762 6.457 0 10.762-4.3047 10.762-10.762z" fill="#fff"/>
 <path d="m424.44 494.4h-96.867c-3.2305 0-5.3828 2.1523-5.3828 5.3828s2.1523 5.3828 5.3828 5.3828h96.867c3.2305 0 5.3828-2.1523 5.3828-5.3828-0.003906-3.2305-2.1562-5.3828-5.3828-5.3828z" fill="#fff"/>
 <path d="m402.91 515.92h-53.816c-3.2305 0-5.3828 2.1523-5.3828 5.3828 0 3.2305 2.1523 5.3828 5.3828 5.3828h53.816c3.2305 0 5.3828-2.1523 5.3828-5.3828 0-3.2305-2.1562-5.3828-5.3828-5.3828z" fill="#fff"/>
</svg>
