<?xml version="1.0" encoding="UTF-8"?>
<svg style="fill: var(--color_fill)" width="752pt" height="752pt" version="1.1" viewBox="0 0 752 752" xmlns="http://www.w3.org/2000/svg">
 <path d="m579.91 451.55-37.289-7.4102c-1.6172-0.32422-2.7852-1.6953-2.8438-3.332-1.6367-45.613-19.926-88.895-51.5-121.87-12.492-13.043-31.473-16.234-47.445-8.5898-13.496-15.074-30.293-27.59-50.109-36.02-12.59-5.3555-25.832-8.7461-39.379-10.316 0.23047-1.9688 0.60156-3.8984 0.60156-5.9297 0-26.645-20.371-48.375-46.32-51.062l5.2656-18.047c0.49219-1.6875 0.046875-3.5039-1.1562-4.7773-1.2031-1.2734-2.9883-1.793-4.7109-1.4062l-42.348 9.9375c-1.707 0.39844-3.0742 1.6758-3.5859 3.3594-0.51953 1.6758-0.10547 3.4961 1.0898 4.7891l2.2891 2.4844-11.664 2.7383c-2.6484 0.62109-4.2969 3.2773-3.6719 5.9297 0.53125 2.2734 2.5547 3.8047 4.7969 3.8047 0.36719 0 0.75-0.042969 1.1289-0.12891l17.094-4.0117 2.6797 2.9023c-14.422 9.1562-24.078 25.172-24.078 43.484 0 10.391 3.1445 20.031 8.4492 28.137-29.934 19.504-50.227 48.535-59.27 80.75-12.051 5.5039-20.727 16.289-23.328 29.406-8.8828 44.777-1.0195 91.105 22.121 130.44 0.82812 1.418 0.57812 3.1953-0.60547 4.3359l-27.449 26.301c-2.7539 2.6367-2.8516 7.0156-0.21094 9.7734 1.3008 1.3477 3.1133 2.1211 4.9805 2.1211h71.742c10.84 0 19.656-8.8203 19.656-19.66 0-1.4492-0.15234-2.8711-0.45313-4.1914l-5.2188-23.926c1.8086 0.29297 3.6406 0.48438 5.4961 0.48438 0.90625 0 1.8203-0.035156 2.7344-0.10547 6.5547-0.51172 12.648-2.8945 17.797-6.7188 16.93 15.766 38.574 23.793 60.305 23.793 22.219 0 44.465-8.2812 61.645-24.926 9.3594-9.0703 16.488-20.238 21.086-32.398 1.9883 0.35156 4.0117 0.55469 6.0664 0.55469 0.61719 0 1.2422-0.019532 1.8711-0.054688 9.2031-0.48828 17.66-4.5273 23.816-11.383 2.543-2.8281 4.5859-6.0352 6.0898-9.5469 1.5703-3.6875 2.8594-7.4219 4.0938-11.16 1.1992 1.5938 2.4805 3.125 3.9219 4.5156 4.6328 4.4766 8.2656 10.031 10.492 16.07l8.1992 22.254c2.918 7.9336 10.453 12.863 18.469 12.863 2.2539 0 4.5469-0.39063 6.793-1.2148 1.3398-0.5 2.6016-1.1328 3.7461-1.8711l60.508-38.582c3.1992-2.0586 4.1328-6.332 2.0898-9.5352-1.0078-1.5742-2.6367-2.6875-4.4766-3.0547zm-306.75-251.15 25.891-6.0742-3.7031 12.664c-4.6484 0.45703-9.1289 1.4062-13.332 3.0156zm27.191 15.953c23.008 0 41.73 18.723 41.73 41.73 0 23.008-18.723 41.73-41.73 41.73-23.008 0-41.73-18.723-41.73-41.73 0-23.012 18.723-41.73 41.73-41.73zm-45.602 331.27c0.14453 0.64453 0.22266 1.3398 0.22266 2.0625 0 5.4023-4.3945 9.793-9.7891 9.793h-64.375l22.133-21.203c4.5078-4.3164 5.4453-11.086 2.2852-16.461-21.91-37.254-29.348-81.117-20.945-123.52 1.3984-7.043 5.2383-13.078 10.504-17.578-5.793 32.676-0.41797 67.469 17.957 98.09 7.9219 13.199 17.871 24.965 29.559 34.961 1.8477 1.582 3.8633 2.8789 5.9492 4.0195zm145.54-40.617c-30.125 29.188-77.703 29.363-108.14 1.2266 5.0781-6.7188 7.6172-14.887 6.9492-23.355-0.47266-6.0664-2.6172-11.699-5.9492-16.598l107.09-25.129c-1.4609 10.922 2.25 22.348 11.051 30.254 2.3164 2.0859 4.918 3.6953 7.6289 5.0625-4.0938 10.711-10.387 20.543-18.633 28.539zm56.711-49.613c-1.0703 2.5117-2.5352 4.8086-4.3555 6.832-4.3945 4.8906-10.426 7.7773-16.996 8.1211-6.5117 0.375-12.871-1.8789-17.766-6.2773-10.098-9.0703-10.926-24.672-1.8516-34.762 0.69531-0.77734 1.1289-1.7422 1.2344-2.7734 2.293-21.402-3.875-42.434-17.371-59.207-1.7148-2.1289-4.8086-2.4531-6.9375-0.75-2.1211 1.7109-2.457 4.8125-0.75 6.9375 11.531 14.332 16.977 32.199 15.398 50.473-1.5977 1.957-2.8867 4.0664-3.9883 6.2422l-118.42 27.785c-3.0625-2.2695-6.4141-4.1602-10.039-5.3164-8.5547-15.203-11.207-32.875-7.457-49.98 0.58594-2.6602-1.0977-5.2891-3.7578-5.8711-2.6797-0.57812-5.3008 1.1016-5.8789 3.7617-4.4336 20.195-1.0195 41.09 9.5977 58.82 0.67578 1.1211 1.7617 1.9336 3.0352 2.25 3.6719 0.92188 7.1406 2.707 10.02 5.1758 5 4.2773 8.0352 10.242 8.5469 16.797 0.51953 6.5547-1.5508 12.914-5.8281 17.91-4.2773 5-10.242 8.0352-16.805 8.5469-6.4062 0.53125-12.91-1.5508-17.91-5.8359-10.887-9.3086-20.148-20.258-27.52-32.543-36.949-61.57-17.859-141.29 42.18-179.79 9.3828 9.6758 22.461 15.742 36.973 15.742 22.977 0 42.258-15.191 48.922-35.984 12.945 1.4062 25.586 4.6055 37.602 9.7109 67.289 28.637 98.746 106.69 70.121 173.99zm59.488 37.023c-0.57031 0.36719-1.2031 0.67969-1.8711 0.92578-5.0781 1.8711-10.715-0.74219-12.582-5.8047l-8.1992-22.254c-2.7266-7.4297-7.1875-14.266-12.891-19.762-3.207-3.0938-5.5508-6.9609-6.9805-11.145 9.3516-42-1.043-85.312-26.543-118.27 11.617-4.4297 24.852-1.6211 33.738 7.6523 29.898 31.227 47.223 72.211 48.762 115.41 0.23047 6.2305 4.6641 11.434 10.781 12.645l30.07 5.9727z" fill="#fff"/>
</svg>
